<?xml version="1.0" encoding="utf-8"?><svg xmlns="http://www.w3.org/2000/svg"><symbol viewBox="0 0 26 26" id="note" >
    <path d="M 4 0 C 1.795 0 0 1.795 0 4 L 0 22 C 0 24.205 1.795 26 4 26 L 17 26 C 18.063 26 19.539 24.46475 21.25 22.71875 C 21.49 22.47475 21.72075 22.246 21.96875 22 C 22.21475 21.752 22.47475 21.49 22.71875 21.25 C 24.46575 19.538 26 18.063 26 17 L 26 4 C 26 1.795 24.205 0 22 0 L 4 0 z M 4 2 L 22 2 C 23.104 2 24 2.896 24 4 L 24 17 C 24 17.995 22.998 18 22 18 L 19 18 C 18.449 18 18 18.449 18 19 L 18 22.0625 C 18 22.9495 18.00225 23.816 17.28125 24 L 4 24 C 2.896 24 2 23.104 2 22 L 2 4 C 2 2.896 2.896 2 4 2 z M 6.8125 8 A 1.001098 1.001098 0 0 0 7 10 L 19 10 A 1.0001 1.0001 0 1 0 19 8 L 7 8 A 1.0001 1.0001 0 0 0 6.90625 8 A 1.001098 1.001098 0 0 0 6.8125 8 z M 6.8125 13 A 1.001098 1.001098 0 0 0 7 15 L 17 15 A 1.0001 1.0001 0 1 0 17 13 L 7 13 A 1.0001 1.0001 0 0 0 6.90625 13 A 1.001098 1.001098 0 0 0 6.8125 13 z"></path>
</symbol><symbol viewBox="0 0 24 24" id="download" >
    <path d="M 10 0 L 10 10 L 6.5 10 L 12 17.5 L 17.5 10 L 14 10 L 14 0 L 10 0 z M 0 22 L 0 24 L 24 24 L 24 22 L 0 22 z"></path>
</symbol><symbol viewBox="0 0 24 24" id="edit" >
    <path d="M 18.40625 2 C 18.15625 2 17.8875 2.1125 17.6875 2.3125 L 16 4 L 16.03125 4.03125 L 3.1875 16.8125 L 2 18 L 2 22 L 6 22 L 7.1875 20.8125 L 20 8 L 21.6875 6.3125 C 22.0875 5.9125 22.0875 5.20625 21.6875 4.90625 L 19.09375 2.3125 C 18.89375 2.1125 18.65625 2 18.40625 2 z M 17 5.90625 L 18.09375 7 L 5.75 19.375 L 4.625 18.25 L 17 5.90625 z"></path>
</symbol><symbol viewBox="0 0 24 24" id="delete" >
    <path d="M 10 3 L 9 4 L 5 4 L 5 6 L 19 6 L 19 4 L 15 4 L 14 3 L 10 3 z M 6 7 L 6 20 C 6 21.1 6.9 22 8 22 L 16 22 C 17.1 22 18 21.1 18 20 L 18 7 L 6 7 z M 9 10 L 11 10 L 11 19 L 9 19 L 9 10 z M 13 10 L 15 10 L 15 19 L 13 19 L 13 10 z"></path>
</symbol><symbol viewBox="0 0 26 26" id="video-file" >
    <path d="M 7 0 C 4.795 0 3 1.795 3 4 L 3 22 C 3 24.205 4.795 26 7 26 L 19 26 C 21.205 26 23 24.205 23 22 L 23 8 C 23 6.938 22.02725 5.92975 20.28125 4.21875 C 20.03725 3.97875 19.77725 3.71675 19.53125 3.46875 C 19.28325 3.22275 19.02125 2.994 18.78125 2.75 C 17.06925 1.003 16.063 0 15 0 L 7 0 z M 7 2 L 14.28125 2 C 15.00225 2.184 15 3.0505 15 3.9375 L 15 7 C 15 7.551 15.449 8 16 8 L 19 8 C 19.998 8 21 8.005 21 9 L 21 22 C 21 23.104 20.104 24 19 24 L 7 24 C 5.896 24 5 23.104 5 22 L 5 4 C 5 2.896 5.896 2 7 2 z M 10.65625 10.96875 C 10.546 10.973875 10.41 11.004 10.3125 11.0625 C 10.1195 11.1795 10 11.36975 10 11.59375 L 10 18.25 C 10 18.474 10.1185 18.66525 10.3125 18.78125 C 10.4205 18.84525 10.53925 18.875 10.65625 18.875 C 10.75825 18.875 10.87475 18.8585 10.96875 18.8125 L 16.65625 15.5 C 16.87825 15.391 17 15.1825 17 14.9375 C 17.001 14.6915 16.87825 14.45275 16.65625 14.34375 L 10.96875 11.03125 C 10.86725 10.98025 10.7665 10.963625 10.65625 10.96875 z"></path>
</symbol><symbol viewBox="0 0 24 24" id="open-link" >
    <path d="M 5 3 C 3.9 3 3 3.9 3 5 L 3 19 C 3 20.1 3.9 21 5 21 L 19 21 C 20.1 21 21 20.1 21 19 L 21 13 L 19 11 L 19 19 L 5 19 L 5 5 L 13 5 L 11 3 L 5 3 z M 14 3 L 16.65625 5.65625 L 9.15625 13.15625 L 10.84375 14.84375 L 18.34375 7.34375 L 21 10 L 21 3 L 14 3 z"></path>
</symbol><symbol viewBox="0 0 24 24" id="settings" >
    <path d="M19.4,13c0-0.3,0.1-0.7,0.1-1s0-0.7-0.1-1l2.1-1.5c0.2-0.1,0.3-0.4,0.1-0.7l-2-3.5C19.5,5,19.2,4.9,19,5l-2.4,1.1 c-0.5-0.4-1.2-0.8-1.8-1l-0.3-2.6C14.5,2.2,14.3,2,14,2H10C9.7,2,9.5,2.2,9.5,2.5L9.2,5c-0.7,0.3-1.3,0.6-1.8,1L5,5 C4.8,4.9,4.5,5,4.4,5.2l-2,3.5C2.2,9,2.2,9.3,2.5,9.4L4.6,11c0,0.3-0.1,0.7-0.1,1s0,0.7,0.1,1l-2.1,1.5c-0.2,0.1-0.3,0.4-0.1,0.7 l2,3.5C4.5,19,4.8,19.1,5,19l2.4-1.1c0.5,0.4,1.2,0.8,1.8,1l0.3,2.6c0,0.3,0.2,0.5,0.5,0.5H14c0.3,0,0.5-0.2,0.5-0.5l0.3-2.6 c0.7-0.3,1.3-0.6,1.8-1L19,19c0.2,0.1,0.5,0,0.6-0.2l2-3.5c0.1-0.2,0.1-0.5-0.1-0.7L19.4,13z M12,16c-2.2,0-4-1.8-4-4 c0-2.2,1.8-4,4-4s4,1.8,4,4C16,14.2,14.2,16,12,16z"></path>
</symbol><symbol viewBox="0 0 24 24" id="open-in-browser" >
    <path style="text-indent:0;text-align:start;line-height:normal;text-transform:none;block-progression:tb;-inkscape-font-specification:Bitstream Vera Sans" d="M 4 3 C 3.4777778 3 2.9395305 3.1854695 2.5625 3.5625 C 2.1854695 3.9395305 2 4.4777778 2 5 L 2 19 C 2 19.522222 2.1854695 20.060469 2.5625 20.4375 C 2.9395305 20.814531 3.4777778 21 4 21 L 9 21 L 9 19 L 4 19 L 4 10 L 20 10 L 20 19 L 15 19 L 15 21 L 20 21 C 20.522222 21 21.060469 20.814531 21.4375 20.4375 C 21.814531 20.060469 22 19.522222 22 19 L 22 5 C 22 4.4777778 21.814531 3.9395305 21.4375 3.5625 C 21.060469 3.1854695 20.522222 3 20 3 L 4 3 z M 5.5 5 C 6.3 5 7 5.7 7 6.5 C 7 7.3 6.3 8 5.5 8 C 4.7 8 4 7.3 4 6.5 C 4 5.7 4.7 5 5.5 5 z M 9.5 5 C 10.3 5 11 5.7 11 6.5 C 11 7.3 10.3 8 9.5 8 C 8.7 8 8 7.3 8 6.5 C 8 5.7 8.7 5 9.5 5 z M 12 5 L 20 5 L 20 8 L 12 8 L 12 5 z M 12 13 L 9 17 L 11 17 L 11 22 L 13 22 L 13 17 L 15 17 L 12 13 z" overflow="visible" enable-background="accumulate" font-family="Bitstream Vera Sans"></path>
</symbol><symbol viewBox="0 0 26 26" id="pie-chart" >
    <path d="M 13.8125 0.34375 L 12.5 12.59375 L 25.5 10.21875 C 24.904 6.66575 22.699 3.42825 19.25 1.65625 C 17.522 0.76725 15.66275 0.34375 13.84375 0.34375 L 13.8125 0.34375 z M 11.96875 2.1875 C 7.69375 2.2005 3.588 4.53075 1.5 8.59375 C -1.481 14.39375 0.79075 21.518 6.59375 24.5 C 12.39675 27.482 19.518 25.20625 22.5 19.40625 C 23.709 17.05325 24.032 14.4845 23.625 12.0625 L 10.65625 14.4375 L 11.96875 2.1875 z M 15.59375 2.5 C 16.54175 2.669 17.47475 2.95925 18.34375 3.40625 C 20.52475 4.52625 22.148 6.383 23 8.625 L 14.78125 10.125 L 15.59375 2.5 z"></path>
</symbol><symbol viewBox="0 0 24 24" id="add-user" >
    <path d="M 15 4 C 12.790861 4 11 5.790861 11 8 C 11 10.209139 12.790861 12 15 12 C 17.209139 12 19 10.209139 19 8 C 19 5.790861 17.209139 4 15 4 z M 4 7 L 4 10 L 1 10 L 1 12 L 4 12 L 4 15 L 6 15 L 6 12 L 9 12 L 9 10 L 6 10 L 6 7 L 4 7 z M 15 14 C 8.9 14 7 18 7 18 L 7 20 L 23 20 L 23 18 C 23 18 21.1 14 15 14 z"></path>
</symbol><symbol viewBox="0 0 32 32" id="cancel" >
   <path style="text-indent:0;text-align:start;line-height:normal;text-transform:none;block-progression:tb;-inkscape-font-specification:Bitstream Vera Sans" d="M 16 3 C 8.8321429 3 3 8.8321429 3 16 C 3 23.167857 8.8321429 29 16 29 C 23.167857 29 29 23.167857 29 16 C 29 8.8321429 23.167857 3 16 3 z M 16 5 C 22.086977 5 27 9.9130231 27 16 C 27 22.086977 22.086977 27 16 27 C 9.9130231 27 5 22.086977 5 16 C 5 9.9130231 9.9130231 5 16 5 z M 12.21875 10.78125 L 10.78125 12.21875 L 14.5625 16 L 10.78125 19.78125 L 12.21875 21.21875 L 16 17.4375 L 19.78125 21.21875 L 21.21875 19.78125 L 17.4375 16 L 21.21875 12.21875 L 19.78125 10.78125 L 16 14.5625 L 12.21875 10.78125 z" overflow="visible" enable-background="accumulate" font-family="Bitstream Vera Sans"></path>
</symbol><symbol viewBox="0 0 26 26" id="document" >
    <path style="text-indent:0;text-align:start;line-height:normal;text-transform:none;block-progression:tb;-inkscape-font-specification:Bitstream Vera Sans" d="M 7 0 C 4.795 0 3 1.795 3 4 L 3 22 C 3 24.205 4.795 26 7 26 L 19 26 C 21.205 26 23 24.205 23 22 L 23 8 C 23 6.938 22.02725 5.92975 20.28125 4.21875 C 20.03725 3.97875 19.77725 3.71675 19.53125 3.46875 C 19.28325 3.22275 19.02125 2.994 18.78125 2.75 C 17.06925 1.003 16.063 0 15 0 L 7 0 z M 7 2 L 14.28125 2 C 15.00225 2.184 15 3.0505 15 3.9375 L 15 7 C 15 7.551 15.449 8 16 8 L 19 8 C 19.998 8 21 8.005 21 9 L 21 22 C 21 23.104 20.104 24 19 24 L 7 24 C 5.896 24 5 23.104 5 22 L 5 4 C 5 2.896 5.896 2 7 2 z M 7.8125 10 A 1.001098 1.001098 0 0 0 8 12 L 18 12 A 1.0001 1.0001 0 1 0 18 10 L 8 10 A 1.0001 1.0001 0 0 0 7.90625 10 A 1.001098 1.001098 0 0 0 7.8125 10 z M 7.8125 14 A 1.001098 1.001098 0 0 0 8 16 L 16 16 A 1.0001 1.0001 0 1 0 16 14 L 8 14 A 1.0001 1.0001 0 0 0 7.90625 14 A 1.001098 1.001098 0 0 0 7.8125 14 z M 7.8125 18 A 1.001098 1.001098 0 0 0 8 20 L 18 20 A 1.0001 1.0001 0 1 0 18 18 L 8 18 A 1.0001 1.0001 0 0 0 7.90625 18 A 1.001098 1.001098 0 0 0 7.8125 18 z"   overflow="visible" enable-background="accumulate" font-family="Bitstream Vera Sans"></path>
</symbol><symbol viewBox="0 0 26 26" id="image-file" >
    <path d="M 7 0 C 4.795 0 3 1.795 3 4 L 3 22 C 3 24.205 4.795 26 7 26 L 19 26 C 21.205 26 23 24.205 23 22 L 23 8 C 23 6.938 22.02725 5.92975 20.28125 4.21875 C 20.03725 3.97875 19.77725 3.71675 19.53125 3.46875 C 19.28325 3.22275 19.02125 2.994 18.78125 2.75 C 17.06925 1.003 16.063 0 15 0 L 7 0 z M 7 2 L 14.28125 2 C 15.00225 2.184 15 3.0505 15 3.9375 L 15 7 C 15 7.551 15.449 8 16 8 L 19 8 C 19.998 8 21 8.005 21 9 L 21 22 C 21 23.104 20.104 24 19 24 L 7 24 C 5.896 24 5 23.104 5 22 L 5 4 C 5 2.896 5.896 2 7 2 z M 10 9 C 8.8954305 9 8 9.8954305 8 11 C 8 12.104569 8.8954305 13 10 13 C 11.104569 13 12 12.104569 12 11 C 12 9.8954305 11.104569 9 10 9 z M 15.96875 12.15625 C 14.78175 12.15625 14.36175 17.0625 12.71875 17.0625 C 11.50175 17.0625 11.029 15.0625 10 15.0625 C 8.971 15.0625 7.125 19.25 7.125 19.25 C 6.745 19.672 7.311 20 7.75 20 L 18.3125 20 C 18.6695 20 19.12375 19.5475 18.84375 18.9375 C 18.84375 18.9375 17.15575 12.15625 15.96875 12.15625 z"></path>
</symbol><symbol viewBox="0 0 24 24" id="admin" >
    <path d="M 9 2 C 5.1 2 2 5.1 2 9 C 2 12.9 5.1 16 9 16 C 9.8949107 16 10.748374 15.829915 11.53125 15.53125 L 13 17 L 15 17 L 15 19 L 17 19 L 17 21 L 17.6875 21.6875 C 17.8875 21.8875 18.10625 22 18.40625 22 L 21 22 C 21.6 22 22 21.6 22 21 L 22 18.40625 C 22 18.10625 21.8875 17.8875 21.6875 17.6875 L 15.53125 11.53125 C 15.829915 10.748374 16 9.8949107 16 9 C 16 5.1 12.9 2 9 2 z M 7.5 5 C 8.9 5 10 6.1 10 7.5 C 10 8.9 8.9 10 7.5 10 C 6.1 10 5 8.9 5 7.5 C 5 6.1 6.1 5 7.5 5 z"></path>
</symbol><symbol viewBox="0 0 24 24" id="attach" >
    <path style="text-indent:0;text-align:start;line-height:normal;text-transform:none;block-progression:tb;-inkscape-font-specification:Bitstream Vera Sans" d="M 16.84375 3.875 C 15.498845 3.88619 14.159834 4.4010389 13.125 5.375 L 13.09375 5.375 L 13.09375 5.40625 L 7.09375 11.40625 C 5.881271 12.618729 5.881271 14.600021 7.09375 15.8125 C 8.306229 17.024979 10.287521 17.024979 11.5 15.8125 L 16.71875 10.59375 L 15.28125 9.1875 L 10.09375 14.40625 C 9.706229 14.793771 8.887521 14.793771 8.5 14.40625 C 8.112479 14.018729 8.112479 13.200021 8.5 12.8125 L 14.5 6.84375 C 15.830333 5.5916721 17.860724 5.5043631 19.0625 6.78125 C 20.300326 8.0964397 20.296002 10.203998 19.09375 11.40625 L 13.09375 17.40625 C 11.087396 19.496202 7.7193414 19.415568 5.59375 17.375 C 3.494187 15.35942 3.4708736 12.029126 5.59375 9.90625 L 9.3125 6.21875 L 7.90625 4.78125 L 4.1875 8.5 C 1.3103764 11.377124 1.318313 16.02808 4.21875 18.8125 C 7.0824208 21.561624 11.703054 21.689115 14.5 18.8125 C 14.51049 18.80171 14.52081 18.79212 14.53125 18.78125 L 20.5 12.8125 C 22.497748 10.814752 22.493424 7.4910603 20.53125 5.40625 C 19.532138 4.3446934 18.188655 3.8638099 16.84375 3.875 z"   overflow="visible" enable-background="accumulate" font-family="Bitstream Vera Sans"></path>
</symbol><symbol viewBox="0 0 24 24" id="bar-chart" >
    <path style="text-indent:0;text-align:start;line-height:normal;text-transform:none;block-progression:tb;-inkscape-font-specification:Bitstream Vera Sans" d="M 17 2 L 17 22 L 21 22 L 21 2 L 17 2 z M 12 6 L 12 22 L 16 22 L 16 6 L 12 6 z M 7 10 L 7 22 L 11 22 L 11 10 L 7 10 z M 2 14 L 2 22 L 6 22 L 6 14 L 2 14 z"   overflow="visible" enable-background="accumulate" font-family="Bitstream Vera Sans"></path>
</symbol><symbol viewBox="0 0 24 24" id="binoculars" >
    <path style="text-indent:0;text-align:start;line-height:normal;text-transform:none;block-progression:tb;-inkscape-font-specification:Bitstream Vera Sans" d="M 7.5 4 C 6.2918771 4 5.2956157 4.8607922 5.0625 6 L 4.46875 6 C 3.59975 6 2.8285 6.548 2.5625 7.375 L 0.40625 14.0625 C 0.15231087 14.660137 0 15.312605 0 16 C 0 18.749579 2.2504209 21 5 21 C 7.0369179 21 8.7854477 19.758076 9.5625 18 L 14.4375 18 C 15.214552 19.758076 16.963082 21 19 21 C 21.749579 21 24 18.749579 24 16 C 24 15.312605 23.847689 14.660137 23.59375 14.0625 L 21.375 7.375 C 21.104 6.555 20.33175 6 19.46875 6 L 18.9375 6 C 18.704384 4.8607922 17.708123 4 16.5 4 C 15.291877 4 14.295616 4.8607922 14.0625 6 L 9.9375 6 C 9.7043843 4.8607922 8.7081229 4 7.5 4 z M 5 13 C 6.6686989 13 8 14.331301 8 16 C 8 17.668699 6.6686989 19 5 19 C 3.3313011 19 2 17.668699 2 16 C 2 14.331301 3.3313011 13 5 13 z M 19 13 C 20.668699 13 22 14.331301 22 16 C 22 17.668699 20.668699 19 19 19 C 17.331301 19 16 17.668699 16 16 C 16 14.331301 17.331301 13 19 13 z M 12 14 C 12.552 14 13 14.448 13 15 C 13 15.552 12.552 16 12 16 C 11.448 16 11 15.552 11 15 C 11 14.448 11.448 14 12 14 z"   overflow="visible" enable-background="accumulate" font-family="Bitstream Vera Sans"></path>
</symbol><symbol viewBox="0 0 50 50" id="opened-folder" >
    <path style="text-indent:0;text-align:start;line-height:normal;text-transform:none;block-progression:tb;-inkscape-font-specification:Bitstream Vera Sans" d="M 3 4 C 1.3549372 4 0 5.3549372 0 7 L 0 11 L 0 40 L 0 43.90625 A 1.0001 1.0001 0 0 0 0.0625 44.59375 C 0.34433454 45.955157 1.56057 47 3 47 L 42 47 C 43.492951 47 44.718361 45.873496 44.9375 44.4375 C 44.947093 44.374641 44.96319 44.314018 44.96875 44.25 A 1.0001 1.0001 0 0 0 44.96875 44.1875 L 45 44.03125 C 45.000114 44.020571 45 44.010704 45 44 L 49.96875 17.1875 L 50 17.09375 L 50 17 C 50 15.354937 48.645063 14 47 14 L 47 11 C 47 9.3549372 45.645063 8 44 8 L 18.03125 8 C 18.034467 8.0043661 18.021642 8 18 8 C 17.967808 7.9776841 17.877597 7.9017991 17.71875 7.71875 C 17.474368 7.437136 17.189184 6.9699412 16.875 6.46875 C 16.560816 5.9675588 16.227636 5.4386492 15.8125 4.96875 C 15.397364 4.4988508 14.818754 4 14 4 L 3 4 z M 3 6 L 14 6 C 13.93925 6 14.06504 6.00115 14.3125 6.28125 C 14.559957 6.5613508 14.843559 7.0324412 15.15625 7.53125 C 15.468941 8.0300588 15.812289 8.562864 16.21875 9.03125 C 16.625211 9.499636 17.178927 10 18 10 L 44 10 C 44.562937 10 45 10.437063 45 11 L 45 14 L 8 14 C 6.4255094 14 5.1718893 15.26371 5.0625 16.8125 L 5.03125 16.8125 L 5 17 L 2 33.1875 L 2 11 L 2 7 C 2 6.4370628 2.4370628 6 3 6 z M 8 16 L 45.8125 16 L 46.21875 16 L 47 16 C 47.562937 16 48 16.437063 48 17 L 43.09375 43.53125 L 43.0625 43.59375 A 1.0001 1.0001 0 0 0 43.03125 43.71875 A 1.0001 1.0001 0 0 0 43 43.84375 A 1.0001 1.0001 0 0 0 43 43.90625 A 1.0001 1.0001 0 0 0 43 43.9375 A 1.0001 1.0001 0 0 0 42.96875 44.09375 C 42.965893 44.124574 42.974211 44.157648 42.96875 44.1875 A 1.0001 1.0001 0 0 0 42.96875 44.3125 C 42.842978 44.720032 42.455556 45 42 45 L 3 45 C 2.4370628 45 2 44.562937 2 44 L 6.96875 17.1875 L 7 17.09375 L 7 17 C 7 16.437063 7.4370628 16 8 16 z"   overflow="visible" enable-background="accumulate" font-family="Bitstream Vera Sans"></path>
</symbol><symbol viewBox="0 0 24 24" id="calendar" >
    <path d="M 6 2 L 6 4 L 5 4 C 3.9 4 3 4.9 3 6 L 3 20 C 3 21.1 3.9 22 5 22 L 19 22 C 20.1 22 21 21.1 21 20 L 21 6 C 21 4.9 20.1 4 19 4 L 18 4 L 18 2 L 16 2 L 16 4 L 8 4 L 8 2 L 6 2 z M 5 9 L 19 9 L 19 20 L 5 20 L 5 9 z M 12 13 L 12 18 L 17 18 L 17 13 L 12 13 z" fill-rule="evenodd"></path>
</symbol><symbol viewBox="0 0 32 32" id="decline" >
    <path style="text-indent:0;text-align:start;line-height:normal;text-transform:none;block-progression:tb;-inkscape-font-specification:Bitstream Vera Sans" d="M 16 3 C 8.8321429 3 3 8.8321429 3 16 C 3 23.167857 8.8321429 29 16 29 C 23.167857 29 29 23.167857 29 16 C 29 8.8321429 23.167857 3 16 3 z M 16 5 C 22.086977 5 27 9.9130231 27 16 C 27 22.086977 22.086977 27 16 27 C 9.9130231 27 5 22.086977 5 16 C 5 9.9130231 9.9130231 5 16 5 z M 12.21875 10.78125 L 10.78125 12.21875 L 14.5625 16 L 10.78125 19.78125 L 12.21875 21.21875 L 16 17.4375 L 19.78125 21.21875 L 21.21875 19.78125 L 17.4375 16 L 21.21875 12.21875 L 19.78125 10.78125 L 16 14.5625 L 12.21875 10.78125 z" overflow="visible" enable-background="accumulate" font-family="Bitstream Vera Sans"></path>
</symbol><symbol viewBox="0 0 24 24" id="checkmark" >
    <path style="text-indent:0;text-align:start;line-height:normal;text-transform:none;block-progression:tb;-inkscape-font-specification:Bitstream Vera Sans" d="M 19.28125 5.28125 L 9 15.5625 L 4.71875 11.28125 L 3.28125 12.71875 L 8.28125 17.71875 L 9 18.40625 L 9.71875 17.71875 L 20.71875 6.71875 L 19.28125 5.28125 z"   overflow="visible" enable-background="accumulate" font-family="Bitstream Vera Sans"></path>
</symbol><symbol viewBox="0 0 24 24" id="collapse" >
    <path style="text-indent:0;text-align:start;line-height:normal;text-transform:none;block-progression:tb;-inkscape-font-specification:Bitstream Vera Sans" d="M 12 5.09375 L 11.28125 5.78125 L 2.28125 14.78125 L 3.71875 16.21875 L 12 7.9375 L 20.28125 16.21875 L 21.71875 14.78125 L 12.71875 5.78125 L 12 5.09375 z"   overflow="visible" enable-background="accumulate" font-family="Bitstream Vera Sans"></path>
</symbol><symbol viewBox="0 0 24 24" id="comment" >
    <path style="text-indent:0;text-align:start;line-height:normal;text-transform:none;block-progression:tb;-inkscape-font-specification:Bitstream Vera Sans" d="M 5 2 C 3.3545455 2 2 3.3545455 2 5 L 2 21 L 2 22 L 3 22 L 3.5 22 L 4 22 L 4.3125 21.59375 L 7 18 L 19 18 C 20.645455 18 22 16.645455 22 15 L 22 5 C 22 3.3545455 20.645455 2 19 2 L 5 2 z M 5 4 L 19 4 C 19.554545 4 20 4.4454545 20 5 L 20 15 C 20 15.554545 19.554545 16 19 16 L 6.5 16 L 6 16 L 5.6875 16.40625 L 4 18.65625 L 4 5 C 4 4.4454545 4.4454545 4 5 4 z"   overflow="visible" enable-background="accumulate" font-family="Bitstream Vera Sans"></path>
</symbol><symbol viewBox="0 0 24 24" id="checked" >
    <path style="text-indent:0;text-align:start;line-height:normal;text-transform:none;block-progression:tb;-inkscape-font-specification:Bitstream Vera Sans" d="M 12 2 C 6.5 2 2 6.5 2 12 C 2 17.5 6.5 22 12 22 C 17.2 22 21.40625 18.1 21.90625 13 L 19.90625 13 C 19.40625 16.9 16 20 12 20 C 7.6 20 4 16.4 4 12 C 4 7.6 7.6 4 12 4 C 13.4 4 14.70625 4.4 15.90625 5 L 17.40625 3.5 C 15.80625 2.6 14 2 12 2 z M 20.5 4.875 L 11.1875 13.78125 L 7.5 10.09375 L 6.09375 11.5 L 10.5 15.90625 L 11.1875 16.59375 L 11.90625 15.90625 L 21.90625 6.3125 L 20.5 4.875 z"   overflow="visible" enable-background="accumulate" font-family="Bitstream Vera Sans"></path>
</symbol><symbol viewBox="0 0 24 24" id="empty-box" >
    <path d="M21.8,8.6L19.6,5c-0.4-0.6-1-1-1.7-1H6.1C5.4,4,4.8,4.4,4.4,5L2.2,8.6C2.1,8.8,2,9.2,2,9.5V20c0,1.1,0.9,2,2,2h16 c1.1,0,2-0.9,2-2v-4V9.5C22,9.2,21.9,8.8,21.8,8.6z M15,13c-0.2,0-5.8,0-6,0c-0.6,0-1-0.4-1-1s0.4-1,1-1c0.2,0,5.8,0,6,0 c0.6,0,1,0.4,1,1S15.6,13,15,13z M4.2,9l1.7-3h12.2l1.7,3H4.2z"></path>
</symbol><symbol viewBox="0 0 24 24" id="create-new" >
    <path d="M 19.5 1.96875 C 19.325 1.96875 19.15 2.0375 19 2.1875 L 17.8125 3.40625 L 20.59375 6.1875 L 21.8125 5 C 22.1125 4.7 22.1125 4.3 21.8125 4 L 20 2.1875 C 19.85 2.0375 19.675 1.96875 19.5 1.96875 z M 17.09375 4.09375 L 8 13.1875 L 8 16 L 10.8125 16 L 19.90625 6.90625 L 17.09375 4.09375 z M 4 6 C 2.9 6 2 6.9 2 8 L 2 20 C 2 21.1 2.9 22 4 22 L 16 22 C 17.1 22 18 21.1 18 20 L 18 11.1875 L 16 13.1875 L 16 20 L 4 20 L 4 8 L 10.8125 8 L 12.8125 6 L 4 6 z"></path>
</symbol><symbol viewBox="0 0 24 24" id="dashboard" >
    <path d="M 12 3 C 6.4666667 3 2 7.4666667 2 13 C 2 15.233333 2.7940331 17.26175 4 18.90625 L 5.59375 17.71875 C 4.5997169 16.36325 4 14.766667 4 13 C 4 8.5333333 7.5333333 5 12 5 C 16.466667 5 20 8.5333333 20 13 C 20 14.766667 19.400283 16.36325 18.40625 17.71875 L 20 18.90625 C 21.205967 17.26175 22 15.233333 22 13 C 22 7.4666667 17.533333 3 12 3 z M 15.6875 7.90625 L 12.15625 11.4375 C 12.101946 11.43193 12.055775 11.40625 12 11.40625 C 11.116344 11.40625 10.40625 12.116344 10.40625 13 C 10.40625 13.883656 11.116344 14.59375 12 14.59375 C 12.883656 14.59375 13.59375 13.883656 13.59375 13 C 13.59375 12.944225 13.56807 12.898054 13.5625 12.84375 L 17.09375 9.3125 L 15.6875 7.90625 z"></path>
</symbol><symbol viewBox="0 0 24 24" id="collapse" >
    <path style="text-indent:0;text-align:start;line-height:normal;text-transform:none;block-progression:tb;-inkscape-font-specification:Bitstream Vera Sans" d="M 3.40625 2 L 2 3.40625 L 6.59375 8 L 3 8 L 3 10 L 9 10 L 10 10 L 10 9 L 10 3 L 8 3 L 8 6.59375 L 3.40625 2 z M 20.59375 2 L 16 6.59375 L 16 3 L 14 3 L 14 9 L 14 10 L 15 10 L 21 10 L 21 8 L 17.40625 8 L 22 3.40625 L 20.59375 2 z M 3 14 L 3 16 L 6.59375 16 L 2 20.59375 L 3.40625 22 L 8 17.40625 L 8 21 L 10 21 L 10 15 L 10 14 L 9 14 L 3 14 z M 14 14 L 14 15 L 14 21 L 16 21 L 16 17.40625 L 20.59375 22 L 22 20.59375 L 17.40625 16 L 21 16 L 21 14 L 15 14 L 14 14 z"></path>
</symbol><symbol viewBox="0 0 24 24" id="expand-arrow" >
    <path style="text-indent:0;text-align:start;line-height:normal;text-transform:none;block-progression:tb;-inkscape-font-specification:Bitstream Vera Sans" d="M 3.71875 7.78125 L 2.28125 9.21875 L 11.28125 18.21875 L 12 18.90625 L 12.71875 18.21875 L 21.71875 9.21875 L 20.28125 7.78125 L 12 16.0625 L 3.71875 7.78125 z"   overflow="visible" enable-background="accumulate" font-family="Bitstream Vera Sans"></path>
</symbol><symbol viewBox="0 0 24 24" id="flag" >
    <path style="text-indent:0;text-align:start;line-height:normal;text-transform:none;block-progression:tb;-inkscape-font-specification:Bitstream Vera Sans" d="M 3 2 L 3 22 L 5 22 L 5 2 L 3 2 z M 6 2 L 6 4 L 19 4 L 19 13 L 6 13 L 6 15 L 20 15 L 21 15 L 21 14 L 21 3 L 21 2 L 20 2 L 6 2 z"   overflow="visible" enable-background="accumulate" font-family="Bitstream Vera Sans"></path>
</symbol><symbol viewBox="0 0 24 24" id="expand" >
    <path style="text-indent:0;text-align:start;line-height:normal;text-transform:none;block-progression:tb;-inkscape-font-specification:Bitstream Vera Sans" d="M 2 2 L 2 3 L 2 9 L 4 9 L 4 5.40625 L 8.59375 10 L 10 8.59375 L 5.40625 4 L 9 4 L 9 2 L 3 2 L 2 2 z M 15 2 L 15 4 L 18.59375 4 L 14 8.59375 L 15.40625 10 L 20 5.40625 L 20 9 L 22 9 L 22 3 L 22 2 L 21 2 L 15 2 z M 8.59375 14 L 4 18.59375 L 4 15 L 2 15 L 2 21 L 2 22 L 3 22 L 9 22 L 9 20 L 5.40625 20 L 10 15.40625 L 8.59375 14 z M 15.40625 14 L 14 15.40625 L 18.59375 20 L 15 20 L 15 22 L 21 22 L 22 22 L 22 21 L 22 15 L 20 15 L 20 18.59375 L 15.40625 14 z"></path>
</symbol><symbol viewBox="0 0 24 24" id="hide-sidemenu" >
    <path d="M 8 9 C 6.3431458 9 5 10.343146 5 12 C 5 13.656854 6.3431458 15 8 15 C 9.3013209 15 10.39699 14.158348 10.8125 13 L 15 13 L 15 15 L 19 12 L 15 9 L 15 11 L 10.8125 11 C 10.39699 9.8416522 9.3013209 9 8 9 z"></path>
</symbol><symbol viewBox="0 0 24 24" id="picture" >
    <path d="M 4 4 C 2.9 4 2 4.9 2 6 L 2 18 C 2 19.1 2.9 20 4 20 L 20 20 C 21.1 20 22 19.1 22 18 L 22 6 C 22 4.9 21.1 4 20 4 L 4 4 z M 4 6 L 20 6 L 20 18 L 4 18 L 4 6 z M 16.5 8 C 15.671573 8 15 8.6715729 15 9.5 C 15 10.328427 15.671573 11 16.5 11 C 17.328427 11 18 10.328427 18 9.5 C 18 8.6715729 17.328427 8 16.5 8 z M 8 10 L 6 12 L 6 16 L 18 16 L 18 14.40625 L 14 12 L 12 13 L 8 10 z"></path>
</symbol><symbol viewBox="0 0 24 24" id="learning-path" >
    <path d="M 9 2 L 2 5.3125 L 2 21.5 C 2 21.8 2.2 22 2.5 22 C 2.6 22 2.6875 22.00625 2.6875 21.90625 L 9 19 L 15 22 L 22 18.6875 L 22 2.5 C 22 2.2 21.8 2 21.5 2 L 21.3125 2 L 15 4 L 9 2 z M 9.09375 4.1875 L 14.3125 5.90625 L 15 6.09375 L 15.59375 5.90625 L 20 4.5 L 20 17.40625 L 15 19.8125 L 9.90625 17.1875 L 9 16.8125 L 8.09375 17.1875 L 4 19.09375 L 4 6.59375 L 9.09375 4.1875 z M 10 6 C 9.4477153 6 9 6.4477153 9 7 C 9 7.5522847 9.4477153 8 10 8 C 10.552285 8 11 7.5522847 11 7 C 11 6.4477153 10.552285 6 10 6 z M 7 7 C 6.4477153 7 6 7.4477153 6 8 C 6 8.5522847 6.4477153 9 7 9 C 7.5522847 9 8 8.5522847 8 8 C 8 7.4477153 7.5522847 7 7 7 z M 13 7 C 12.447715 7 12 7.4477153 12 8 C 12 8.5522847 12.447715 9 13 9 C 13.552285 9 14 8.5522847 14 8 C 14 7.4477153 13.552285 7 13 7 z M 16 8 C 15.447715 8 15 8.4477153 15 9 C 15 9.5522847 15.447715 10 16 10 C 16.552285 10 17 9.5522847 17 9 C 17 8.4477153 16.552285 8 16 8 z M 18 10 C 17.447715 10 17 10.447715 17 11 C 17 11.552285 17.447715 12 18 12 C 18.552285 12 19 11.552285 19 11 C 19 10.447715 18.552285 10 18 10 z M 6.8125 11 L 6 11.8125 L 7.6875 13.5 L 6 15.1875 L 6.8125 16 L 8.5 14.3125 L 10.1875 16 L 11 15.1875 L 9.3125 13.5 L 11 11.8125 L 10.1875 11 L 8.5 12.6875 L 6.8125 11 z M 18 13 C 17.447715 13 17 13.447715 17 14 C 17 14.552285 17.447715 15 18 15 C 18.552285 15 19 14.552285 19 14 C 19 13.447715 18.552285 13 18 13 z M 13 15 C 12.447715 15 12 15.447715 12 16 C 12 16.552285 12.447715 17 13 17 C 13.552285 17 14 16.552285 14 16 C 14 15.447715 13.552285 15 13 15 z M 16 15 C 15.447715 15 15 15.447715 15 16 C 15 16.552285 15.447715 17 16 17 C 16.552285 17 17 16.552285 17 16 C 17 15.447715 16.552285 15 16 15 z"></path>
</symbol><symbol viewBox="0 0 24 24" id="link" >
    <path style="text-indent:0;text-align:start;line-height:normal;text-transform:none;block-progression:tb;-inkscape-font-specification:Bitstream Vera Sans" d="M 5 7 C 2.2 7 0 9.2 0 12 C 0 14.8 2.2 17 5 17 L 8 17 C 9.6 17 11.1 16.2 12 15 C 12.9 16.2 14.4 17 16 17 L 19 17 C 21.8 17 24 14.8 24 12 C 24 9.2 21.8 7 19 7 L 16 7 C 14.4 7 12.9 7.8 12 9 C 11.1 7.8 9.6 7 8 7 L 5 7 z M 5 9 L 8 9 C 8.9 9 9.6875 9.4 10.1875 10 L 13.8125 10 C 14.3125 9.4 15.1 9 16 9 L 19 9 C 20.7 9 22 10.3 22 12 C 22 13.7 20.7 15 19 15 L 16 15 C 15.1 15 14.3125 14.6 13.8125 14 L 10.1875 14 C 9.6875 14.6 8.9 15 8 15 L 5 15 C 3.3 15 2 13.7 2 12 C 2 10.3 3.3 9 5 9 z M 7.8125 11 A 1.001098 1.001098 0 0 0 8 13 L 16 13 A 1.0001 1.0001 0 1 0 16 11 L 8 11 A 1.0001 1.0001 0 0 0 7.90625 11 A 1.001098 1.001098 0 0 0 7.8125 11 z"   overflow="visible" enable-background="accumulate" font-family="Bitstream Vera Sans"></path>
</symbol><symbol viewBox="0 0 24 24" id="location" >
    <path d="M12,2C8.1,2,5,5.1,5,9c0,6,7,13,7,13s7-7.1,7-13C19,5.1,15.9,2,12,2z M12,11.5c-1.4,0-2.5-1.1-2.5-2.5 c0-1.4,1.1-2.5,2.5-2.5s2.5,1.1,2.5,2.5C14.5,10.4,13.4,11.5,12,11.5z"></path>
</symbol><symbol viewBox="0 0 24 24" id="message" >
    <path d="M 4 4 C 2.9 4 2 4.9 2 6 L 2 18 C 2 19.1 2.9 20 4 20 L 20 20 C 21.1 20 22 19.1 22 18 L 22 6 C 22 4.9 21.1 4 20 4 L 4 4 z M 4 6 L 20 6 L 20 18 L 4 18 L 4 6 z M 5 6.59375 L 5 8.59375 L 12 13 L 19 8.59375 L 19 6.59375 L 12 11 L 5 6.59375 z"></path>
</symbol><symbol viewBox="0 0 24 24" id="microphone" >
    <path style="text-indent:0;text-align:start;line-height:normal;text-transform:none;block-progression:tb;-inkscape-font-specification:Bitstream Vera Sans" d="M 12 2 C 10.3 2 9 3.3 9 5 L 9 12 C 9 13.7 10.3 15 12 15 C 13.7 15 15 13.7 15 12 L 15 5 C 15 3.3 13.7 2 12 2 z M 5 12 C 5 15.506094 7.6225843 18.416102 11 18.90625 L 11 22 L 13 22 L 13 18.90625 C 16.377416 18.416102 19 15.506094 19 12 L 17 12 C 17 14.754545 14.754545 17 12 17 C 9.2454545 17 7 14.754545 7 12 L 5 12 z"   overflow="visible" enable-background="accumulate" font-family="Bitstream Vera Sans"></path>
</symbol><symbol viewBox="0 0 24 24" id="microphone-mute" >
    <path d="M 12 2 C 10.4 2 9.1 3.3125 9 4.8125 L 15 10.8125 L 15 5 C 15 3.3 13.7 2 12 2 z M 3.4375 2.03125 L 2.03125 3.4375 L 9 10.40625 L 9 12 C 9 13.7 10.3 15 12 15 C 12.465 15 12.893768 14.874445 13.28125 14.6875 L 14.71875 16.125 C 13.932714 16.657737 13.01236 17 12 17 C 9.2 17 7 14.8 7 12 L 5 12 C 5 15.5 7.6 18.40625 11 18.90625 L 11 22 L 13 22 L 13 18.90625 C 14.1875 18.71875 15.251953 18.254883 16.15625 17.59375 L 20.5625 21.96875 L 21.96875 20.5625 L 14.6875 13.3125 L 9 7.59375 L 3.4375 2.03125 z M 17 12 C 17 12.3 17.00625 12.4875 16.90625 12.6875 L 18.59375 14.40625 C 18.89375 13.70625 19 12.9 19 12 L 17 12 z"></path>
</symbol><symbol viewBox="0 0 32 32" id="minus" >
    <path d="M 16 3 C 8.8321429 3 3 8.8321429 3 16 C 3 23.167857 8.8321429 29 16 29 C 23.167857 29 29 23.167857 29 16 C 29 8.8321429 23.167857 3 16 3 z M 16 5 C 22.086977 5 27 9.9130231 27 16 C 27 22.086977 22.086977 27 16 27 C 9.9130231 27 5 22.086977 5 16 C 5 9.9130231 9.9130231 5 16 5 z M 10 15 L 10 17 L 22 17 L 22 15 L 10 15 z"></path>
</symbol><symbol viewBox="0 0 24 24" id="user-folder" >
    <path d="M20,6h-9L9,4H4C2.9,4,2,4.9,2,6v12c0,1.1,0.9,2,2,2h16c1.1,0,2-0.9,2-2V8C22,6.9,21.1,6,20,6z M12,9c1.1,0,2,0.9,2,2 c0,1.1-0.9,2-2,2s-2-0.9-2-2C10,9.9,10.9,9,12,9z M16,17H8v-0.8c0,0,1.4-2.2,4-2.2s4,2.2,4,2.2V17z"></path>
</symbol><symbol viewBox="0 0 24 24" id="right" >
    <path style="text-indent:0;text-align:start;line-height:normal;text-transform:none;block-progression:tb;-inkscape-font-specification:Bitstream Vera Sans" d="M 12.21875 2.28125 L 10.78125 3.71875 L 18.0625 11 L 2 11 L 2 13 L 18.0625 13 L 10.78125 20.28125 L 12.21875 21.71875 L 21.21875 12.71875 L 21.90625 12 L 21.21875 11.28125 L 12.21875 2.28125 z"   overflow="visible" enable-background="accumulate" font-family="Bitstream Vera Sans"></path>
</symbol><symbol viewBox="0 0 24 24" id="notification" >
    <path d="M 12 2 C 11.2 2 10.5 2.7 10.5 3.5 L 10.5 4.1875 C 7.3424666 4.8700668 5 7.6215005 5 11 L 5 15.5 L 3 17.8125 L 3 19 L 21 19 L 21 17.8125 L 19 15.5 L 19 11 C 19 7.6215005 16.657533 4.8700668 13.5 4.1875 L 13.5 3.5 C 13.5 2.7 12.8 2 12 2 z M 10 20 C 10 21.1 10.9 22 12 22 C 13.1 22 14 21.1 14 20 L 10 20 z"></path>
</symbol><symbol viewBox="0 0 24 24" id="rules" >
    <path style="text-indent:0;text-align:start;line-height:normal;text-transform:none;block-progression:tb;-inkscape-font-specification:Bitstream Vera Sans" d="M 4.8125 2 C 3.2125 2 2 3.4151515 2 5 C 2 6.5848485 3.2125 8 4.8125 8 L 5 8 L 5 17 C 5 19.9 6.8333333 22 9 22 L 19.6875 22 C 20.466071 22 21.074772 21.522388 21.4375 20.96875 C 21.800228 20.415112 22 19.731818 22 19 C 22 18.268182 21.800228 17.584888 21.4375 17.03125 C 21.074772 16.477612 20.466071 16 19.6875 16 L 18 16 L 18 7 C 18 4.1 16.166667 2 14 2 L 4.8125 2 z M 4.8125 4 L 11.21875 4 C 11.106841 4.3114553 11 4.6389204 11 5 C 11 5.3610796 11.106841 5.6885447 11.21875 6 L 4.8125 6 C 4.4125 6 4 5.6151515 4 5 C 4 4.3848485 4.4125 4 4.8125 4 z M 13.96875 4 A 1.001098 1.001098 0 0 0 14 4 C 14.833333 4 16 4.9 16 7 L 16 17 C 16 18.146888 16.230603 19.173353 16.65625 20 L 9 20 C 8.1666667 20 7 19.1 7 17 L 7 8 L 14 8 L 14 7 L 14 6 C 13.533333 6 13 5.6444444 13 5 C 13 4.3697334 13.509765 4.0152687 13.96875 4 z M 9 10 L 9 12 L 14 12 L 14 10 L 9 10 z M 9 14 L 9 16 L 14 16 L 14 14 L 9 14 z M 18.09375 18 L 19.6875 18 C 19.709392 18.013738 19.732132 18.05003 19.78125 18.125 C 19.893522 18.296362 20 18.631818 20 19 C 20 19.368182 19.893522 19.703638 19.78125 19.875 C 19.732131 19.949971 19.709392 19.986262 19.6875 20 C 19.270833 20 18.928563 19.815922 18.59375 19.34375 C 18.374876 19.035082 18.196632 18.572842 18.09375 18 z"   overflow="visible" enable-background="accumulate" font-family="Bitstream Vera Sans"></path>
</symbol><symbol viewBox="0 0 24 24" id="play" >
    <path d="M 7 5 L 7 19 L 19 12 L 7 5 z"></path>
</symbol><symbol viewBox="0 0 32 32" id="plus" >
    <path d="M 16 3 C 8.8321429 3 3 8.8321429 3 16 C 3 23.167857 8.8321429 29 16 29 C 23.167857 29 29 23.167857 29 16 C 29 8.8321429 23.167857 3 16 3 z M 16 5 C 22.086977 5 27 9.9130231 27 16 C 27 22.086977 22.086977 27 16 27 C 9.9130231 27 5 22.086977 5 16 C 5 9.9130231 9.9130231 5 16 5 z M 15 10 L 15 15 L 10 15 L 10 17 L 15 17 L 15 22 L 17 22 L 17 17 L 22 17 L 22 15 L 17 15 L 17 10 L 15 10 z"></path>
</symbol><symbol viewBox="0 0 24 24" id="left" >
    <path style="text-indent:0;text-align:start;line-height:normal;text-transform:none;block-progression:tb;-inkscape-font-specification:Bitstream Vera Sans" d="M 11.78125 2.28125 L 2.78125 11.28125 L 2.09375 12 L 2.78125 12.71875 L 11.78125 21.71875 L 13.21875 20.28125 L 5.9375 13 L 22 13 L 22 11 L 5.9375 11 L 13.21875 3.71875 L 11.78125 2.28125 z"   overflow="visible" enable-background="accumulate" font-family="Bitstream Vera Sans"></path>
</symbol><symbol viewBox="0 0 24 24" id="print" >
    <path d="M 6 2 L 6 6 L 18 6 L 18 2 L 6 2 z M 6 7 C 3.8 7 2 8.8 2 11 L 2 17 L 6 17 L 6 22 L 18 22 L 18 17 L 22 17 L 22 11 C 22 8.8 20.2 7 18 7 L 6 7 z M 19 9 C 19.6 9 20 9.4 20 10 C 20 10.6 19.6 11 19 11 C 18.4 11 18 10.6 18 10 C 18 9.4 18.4 9 19 9 z M 8 15 L 16 15 L 16 20 L 8 20 L 8 15 z"></path>
</symbol><symbol viewBox="0 0 24 24" id="upload-to-cloud" >
    <path style="text-indent:0;text-align:start;line-height:normal;text-transform:none;block-progression:tb;-inkscape-font-specification:Bitstream Vera Sans" d="M 12 4 C 9 4 6.4 5.59375 5 8.09375 C 2.2 8.59375 0 11 0 14 C 0 17.3 2.7 20 6 20 L 9 20 L 9 18 L 6 18 C 3.8 18 2 16.2 2 14 C 2 12 3.4125 10.39375 5.3125 10.09375 L 6.1875 9.90625 L 6.6875 9.09375 C 7.7875 7.19375 9.8 6 12 6 C 14.8 6 17.2125 7.89375 17.8125 10.59375 L 18.09375 11.90625 L 19.40625 12.09375 C 20.90625 12.29375 21.90625 13.6 21.90625 15 C 21.90625 16.7 20.60625 18 18.90625 18 L 14.90625 18 L 14.90625 20 L 18.90625 20 C 21.70625 20 23.90625 17.8 23.90625 15 C 24.00625 12.5 22.2125 10.39375 19.8125 10.09375 C 18.9125 6.59375 15.8 4 12 4 z M 12 9.6875 L 8 15 L 11 15 L 11 22 L 13 22 L 13 15 L 16 15 L 12 9.6875 z" overflow="visible" enable-background="accumulate" font-family="Bitstream Vera Sans"></path>
</symbol><symbol viewBox="0 0 24 24" id="questions" >
    <path style="text-indent:0;text-align:start;line-height:normal;text-transform:none;block-progression:tb;-inkscape-font-specification:Bitstream Vera Sans" d="M 4 2 L 4 3 L 4 18 L 4 19 L 5 19 L 17 19 L 18 19 L 18 18 L 18 3 L 18 2 L 17 2 L 5 2 L 4 2 z M 6 4 L 16 4 L 16 17 L 6 17 L 6 4 z M 19 5 L 19 20 L 7 20 L 7 22 L 20 22 L 21 22 L 21 21 L 21 5 L 19 5 z M 8.8125 6 A 1.0001 1.0001 0 0 0 8 7 L 8 9.09375 L 10 9.09375 L 10 8 L 12 8 L 12 9.375 L 10.5625 10.09375 A 1.0001 1.0001 0 0 0 10 11 L 10 12 L 12 12 L 12 11.625 L 13.4375 10.90625 A 1.0001 1.0001 0 0 0 14 10 L 14 7 A 1.0001 1.0001 0 0 0 13 6 L 9 6 A 1.0001 1.0001 0 0 0 8.90625 6 A 1.0001 1.0001 0 0 0 8.8125 6 z M 10 13 L 10 15 L 12 15 L 12 13 L 10 13 z" overflow="visible" enable-background="accumulate" font-family="Bitstream Vera Sans"></path>
</symbol><symbol viewBox="0 0 24 24" id="raise-hand" >
    <path d="M 10 2 L 10 10 L 9 10 L 9 3 L 7 3 L 7 14 L 7 14.59375 C 7 14.59375 4.1875 12.6875 3.6875 12.6875 C 2.3875 12.6875 2.09375 14.09375 2.09375 14.09375 L 7.09375 20.6875 C 7.59375 21.4875 8.59375 22 9.59375 22 L 14 22 C 16.2 22 18 20.2 18 18 L 18 16 L 18 12.5 L 18 5 L 16 5 L 16 10.875 L 15 10.71875 L 15 3 L 13 3 L 13 10.40625 L 12 10.25 L 12 2 L 10 2 z"></path>
</symbol><symbol viewBox="0 0 24 24" id="record" >
    <path d="M 12 5 C 8.1340068 5 5 8.1340068 5 12 C 5 15.865993 8.1340068 19 12 19 C 15.865993 19 19 15.865993 19 12 C 19 8.1340068 15.865993 5 12 5 z"></path>
</symbol><symbol viewBox="0 0 24 24" id="register" >
    <path style="text-indent:0;text-align:start;line-height:normal;text-transform:none;block-progression:tb;-inkscape-font-specification:Bitstream Vera Sans" d="M 14.90625 2 C 14.90625 2 11.841872 2.025158 8.71875 2.8125 C 7.1571889 3.2061709 5.5345196 3.7688532 4.25 4.71875 C 2.9654804 5.6686468 2 7.114296 2 8.90625 C 2 9.8036638 2.2767743 10.552961 2.6875 11.09375 C 3.0982257 11.634539 3.5766204 11.945687 3.96875 12.1875 C 4.3608796 12.429313 4.6417104 12.628532 4.78125 12.78125 C 4.9207896 12.933968 5 13.014583 5 13.40625 C 5 13.668015 4.4713301 14.596689 3.71875 15.5625 C 2.9661699 16.528311 2 17.544444 2 19 C 2 20.333333 2.8239861 21.286993 3.5625 21.65625 C 4.3010139 22.025507 5 22 5 22 L 5 20 C 5 20 4.6989861 19.974493 4.4375 19.84375 C 4.1760139 19.713007 4 19.666667 4 19 C 4 18.655556 4.5338301 17.740439 5.28125 16.78125 C 6.0286699 15.822061 7 14.844485 7 13.40625 C 7 12.597917 6.7042104 11.869157 6.28125 11.40625 C 5.8582896 10.943343 5.3891204 10.720687 5.03125 10.5 C 4.6733796 10.279313 4.4017743 10.074836 4.25 9.875 C 4.0982257 9.6751638 4 9.4588362 4 8.90625 C 4 7.798204 4.5220196 7.0438532 5.46875 6.34375 C 6.4154804 5.6436468 7.7740611 5.1063291 9.1875 4.75 C 12.014378 4.0373417 14.90625 4 14.90625 4 L 14.90625 2 z M 18.78125 6.96875 C 18.54375 6.96875 18.29375 7.0375 18.09375 7.1875 L 16.59375 8.6875 L 20.09375 12.1875 L 21.59375 10.6875 C 22.09375 10.3875 22.0875 9.9 21.6875 9.5 L 19.40625 7.1875 C 19.25625 7.0375 19.01875 6.96875 18.78125 6.96875 z M 15.8125 9.6875 L 7 18.5 L 7 22 L 10.5 22 L 19.3125 13.1875 L 15.8125 9.6875 z" overflow="visible" enable-background="accumulate" font-family="Bitstream Vera Sans"></path>
</symbol><symbol viewBox="0 0 24 24" id="request" >
    <path d="M 10 4 L 10 6 L 14 6 L 14 4 L 10 4 z M 12 7 C 7 7 3 11 3 16 L 21 16 C 21 11 17 7 12 7 z M 2 17 L 2 19 L 22 19 L 22 17 L 2 17 z"></path>
</symbol><symbol viewBox="0 0 24 24" id="save" >
    <path d="M 5 3 C 3.9 3 3 3.9 3 5 L 3 19 C 3 20.1 3.9 21 5 21 L 19 21 C 20.1 21 21 20.1 21 19 L 21 6 L 18 3 L 5 3 z M 8 4 L 16 4 L 16 9 L 8 9 L 8 4 z M 13 5 L 13 8 L 15 8 L 15 5 L 13 5 z M 7 12 L 17 12 C 17.6 12 18 12.4 18 13 L 18 18 C 18 18.6 17.6 19 17 19 L 7 19 C 6.4 19 6 18.6 6 18 L 6 13 C 6 12.4 6.4 12 7 12 z"></path>
</symbol><symbol viewBox="0 0 24 24" id="schedule" >
    <path style="text-indent:0;text-align:start;line-height:normal;text-transform:none;block-progression:tb;-inkscape-font-specification:Bitstream Vera Sans" d="M 6 2 L 6 4 L 5 4 C 3.9 4 3 4.9 3 6 L 3 20 C 3 21.1 3.9 22 5 22 L 19 22 C 20.1 22 21 21.1 21 20 L 21 6 C 21 4.9 20.1 4 19 4 L 18 4 L 18 2 L 16 2 L 16 4 L 8 4 L 8 2 L 6 2 z M 5 9 L 19 9 L 19 20 L 5 20 L 5 9 z M 7 11 L 7 13 L 9 13 L 9 11 L 7 11 z M 11 11 L 11 13 L 17 13 L 17 11 L 11 11 z M 7 15 L 7 17 L 9 17 L 9 15 L 7 15 z M 11 15 L 11 17 L 15 17 L 15 15 L 11 15 z" overflow="visible" enable-background="accumulate" font-family="Bitstream Vera Sans"></path>
</symbol><symbol viewBox="0 0 24 24" id="screen-rec" >
    <path d="M 4 4 C 2.9 4 2 4.9 2 6 L 2 15 C 2 16.1 2.9 17 4 17 L 20 17 C 21.1 17 22 16.1 22 15 L 22 6 C 22 4.9 21.1 4 20 4 L 4 4 z M 4 6 L 20 6 L 20 15 L 4 15 L 4 6 z M 7 18 L 7 20 L 17 20 L 17 18 L 7 18 z"></path>
</symbol><symbol viewBox="0 0 24 24" id="screen-share" >
    <path style="text-indent:0;text-align:start;line-height:normal;text-transform:none;block-progression:tb;-inkscape-font-specification:Bitstream Vera Sans" d="M 4 2 C 3.4777778 2 2.9395305 2.1854695 2.5625 2.5625 C 2.1854695 2.9395305 2 3.4777778 2 4 L 2 14 C 2 14.522222 2.1854695 15.060469 2.5625 15.4375 C 2.9395305 15.814531 3.4777778 16 4 16 L 5 16 L 5 14 L 4 14 L 4 4 L 16 4 L 16 7 L 18 7 L 18 4 C 18 3.4777778 17.814531 2.9395305 17.4375 2.5625 C 17.060469 2.1854695 16.522222 2 16 2 L 4 2 z M 8 8 C 7.4777778 8 6.9395305 8.1854695 6.5625 8.5625 C 6.1854695 8.9395305 6 9.4777778 6 10 L 6 20 C 6 20.522222 6.1854695 21.060469 6.5625 21.4375 C 6.9395305 21.814531 7.4777778 22 8 22 L 20 22 C 20.522222 22 21.060469 21.814531 21.4375 21.4375 C 21.814531 21.060469 22 20.522222 22 20 L 22 10 C 22 9.4777778 21.814531 8.9395305 21.4375 8.5625 C 21.060469 8.1854695 20.522222 8 20 8 L 8 8 z M 8 10 L 20 10 L 20 20 L 8 20 L 8 10 z" overflow="visible" enable-background="accumulate" font-family="Bitstream Vera Sans"></path>
</symbol><symbol viewBox="0 0 24 24" id="search" >
    <path d="M 9 2 C 5.1 2 2 5.1 2 9 C 2 12.9 5.1 16 9 16 C 10.722428 16 12.28779 15.386196 13.5 14.375 L 14 14.875 L 14 15.6875 L 20.3125 22 L 22 20.3125 L 15.6875 14 L 14.8125 14 L 14.34375 13.53125 C 15.372135 12.314388 16 10.738606 16 9 C 16 5.1 12.9 2 9 2 z M 9 4 C 11.8 4 14 6.2 14 9 C 14 11.8 11.8 14 9 14 C 6.2 14 4 11.8 4 9 C 4 6.2 6.2 4 9 4 z"></path>
</symbol><symbol viewBox="0 0 24 24" id="visible" >
    <path d="M 12 5 C 6 5 1.3875 11.10625 1.1875 11.40625 C 0.8875 11.80625 0.8875 12.19375 1.1875 12.59375 C 1.3875 12.89375 6 19 12 19 C 18 19 22.6125 12.89375 22.8125 12.59375 C 23.1125 12.19375 23.1125 11.80625 22.8125 11.40625 C 22.6125 11.10625 18 5 12 5 z M 12 7 C 14.8 7 17 9.2 17 12 C 17 14.8 14.8 17 12 17 C 9.2 17 7 14.8 7 12 C 7 9.2 9.2 7 12 7 z M 12 9.5 C 10.619288 9.5 9.5 10.619288 9.5 12 C 9.5 13.380712 10.619288 14.5 12 14.5 C 13.380712 14.5 14.5 13.380712 14.5 12 C 14.5 10.619288 13.380712 9.5 12 9.5 z"></path>
</symbol><symbol viewBox="0 0 24 24" id="sent" >
    <path d="M 2 3 L 2 10.8125 L 18 12 L 2 13.1875 L 2 21 L 22 12 L 2 3 z"></path>
</symbol><symbol viewBox="0 0 24 24" id="chat" >
    <path d="M 4 2 C 2.9 2 2 2.9 2 4 L 2 17 L 5 14 L 15 14 C 16.1 14 17 13.1 17 12 L 17 4 C 17 2.9 16.1 2 15 2 L 4 2 z M 18 7 L 18 12 C 18 13.7 16.7 15 15 15 L 7 15 L 7 17 C 7 18.1 7.9 19 9 19 L 19 19 L 22 22 L 22 9 C 22 7.9 21.1 7 20 7 L 18 7 z"></path>
</symbol><symbol viewBox="0 0 24 24" id="menu" >
    <path d="M 12 3 C 10.895431 3 10 3.8954305 10 5 C 10 6.1045695 10.895431 7 12 7 C 13.104569 7 14 6.1045695 14 5 C 14 3.8954305 13.104569 3 12 3 z M 12 10 C 10.895431 10 10 10.895431 10 12 C 10 13.104569 10.895431 14 12 14 C 13.104569 14 14 13.104569 14 12 C 14 10.895431 13.104569 10 12 10 z M 12 17 C 10.895431 17 10 17.895431 10 19 C 10 20.104569 10.895431 21 12 21 C 13.104569 21 14 20.104569 14 19 C 14 17.895431 13.104569 17 12 17 z"></path>
</symbol><symbol viewBox="0 0 24 24" id="show-menu" >
    <path d="M 9 9 L 5 12 L 9 15 L 9 13 L 13.1875 13 C 13.603011 14.158348 14.698679 15 16 15 C 17.656854 15 19 13.656854 19 12 C 19 10.343146 17.656854 9 16 9 C 14.698679 9 13.603011 9.8416522 13.1875 11 L 9 11 L 9 9 z"></path>
</symbol><symbol viewBox="0 0 24 24" id="star" >
    <path d="M18.2,21L12,17.3L5.8,21l1.6-7L2,9.3l7.2-0.6L12,2l2.8,6.6L22,9.3L16.6,14L18.2,21z"></path>
</symbol><symbol viewBox="0 0 24 24" id="outline-star" >
    <path d="M12,7.1l1,2.3l0.5,1.1l1.2,0.1l2.5,0.2l-1.9,1.6l-0.9,0.8l0.3,1.2l0.6,2.4L13,15.6L12,15l-1,0.6l-2.1,1.3l0.6-2.4l0.3-1.2 l-0.9-0.8l-1.9-1.6l2.5-0.2l1.2-0.1L11,9.4L12,7.1 M12,2L9.2,8.6L2,9.3L7.4,14l-1.6,7l6.2-3.7l6.2,3.7l-1.6-7L22,9.3l-7.2-0.6L12,2 L12,2z"></path>
</symbol><symbol viewBox="0 0 24 24" id="pie-chart" >
    <path style="text-indent:0;text-align:start;line-height:normal;text-transform:none;block-progression:tb;-inkscape-font-specification:Bitstream Vera Sans" d="M 12 2 C 6.4889972 2 2 6.4889972 2 12 C 2 17.511003 6.4889972 22 12 22 C 17.511003 22 22 17.511003 22 12 C 22 6.4889972 17.511003 2 12 2 z M 12 4 C 13.097416 4 14.143098 4.2280671 15.09375 4.625 L 12 12 L 20 12 C 20 16.430123 16.430123 20 12 20 C 7.5698774 20 4 16.430123 4 12 C 4 7.5698774 7.5698774 4 12 4 z" overflow="visible" enable-background="accumulate" font-family="Bitstream Vera Sans"></path>
</symbol><symbol viewBox="0 0 24 24" id="thumbs-up" >
    <path d="M 14 2 L 7.59375 8.40625 C 7.19375 8.80625 7 9.3125 7 9.8125 L 7 20 C 7 21.1 7.9 22 9 22 L 17.6875 22 C 18.4875 22 19.2 21.5125 19.5 20.8125 L 22.6875 13.59375 C 22.8875 13.19375 23 12.7125 23 12.3125 L 23 11 C 23 9.9 22.1 9 21 9 L 14.6875 9 C 14.6875 9 16 5.10625 16 4.40625 C 16 2.50625 14 2 14 2 z M 1 10 L 1 22 L 5 22 L 5 10 L 1 10 z"></path>
</symbol><symbol viewBox="0 0 24 24" id="thumbs-down" >
    <path d="M 6.3125 2 C 5.5125 2 4.8 2.4875 4.5 3.1875 L 1.3125 10.40625 C 1.1125 10.80625 1 11.2875 1 11.6875 L 1 13 C 1 14.1 1.9 15 3 15 L 9.3125 15 C 9.3125 15 8 18.89375 8 19.59375 C 8 21.49375 10 22 10 22 L 16.40625 15.59375 C 16.80625 15.19375 17 14.6875 17 14.1875 L 17 4 C 17 2.9 16.1 2 15 2 L 6.3125 2 z M 19 2 L 19 14 L 23 14 L 23 2 L 19 2 z"></path>
</symbol><symbol viewBox="0 0 24 24" id="clock" >
    <path style="text-indent:0;text-align:start;line-height:normal;text-transform:none;block-progression:tb;-inkscape-font-specification:Bitstream Vera Sans" d="M 12 2 C 6.4666667 2 2 6.4666667 2 12 C 2 17.533333 6.4666667 22 12 22 C 17.533333 22 22 17.533333 22 12 C 22 6.4666667 17.533333 2 12 2 z M 12 4 C 16.466667 4 20 7.5333333 20 12 C 20 16.466667 16.466667 20 12 20 C 7.5333333 20 4 16.466667 4 12 C 4 7.5333333 7.5333333 4 12 4 z M 11 7 L 11 12 L 11 12.40625 L 11.28125 12.71875 L 14.28125 15.71875 L 15.71875 14.28125 L 13 11.5625 L 13 7 L 11 7 z" overflow="visible" enable-background="accumulate" font-family="Bitstream Vera Sans"></path>
</symbol><symbol viewBox="0 0 24 24" id="stopwatch" >
    <path style="text-indent:0;text-align:start;line-height:normal;text-transform:none;block-progression:tb;-inkscape-font-specification:Bitstream Vera Sans" d="M 9 0 L 9 2 L 15 2 L 15 0 L 9 0 z M 12 3 C 6.4666667 3 2 7.4666667 2 13 C 2 18.533333 6.4666667 23 12 23 C 17.533333 23 22 18.533333 22 13 C 22 10.594837 21.158608 8.3791255 19.75 6.65625 L 21.21875 5.21875 L 19.78125 3.78125 L 18.34375 5.25 C 16.620874 3.8413924 14.405163 3 12 3 z M 12 5 C 16.466667 5 20 8.5333333 20 13 C 20 17.466667 16.466667 21 12 21 C 7.5333333 21 4 17.466667 4 13 C 4 8.5333333 7.5333333 5 12 5 z M 11 7 L 11 15 L 13 15 L 13 7 L 11 7 z" overflow="visible" enable-background="accumulate" font-family="Bitstream Vera Sans"></path>
</symbol><symbol viewBox="0 0 24 24" id="unpublish" >
    <path style="text-indent:0;text-align:start;line-height:normal;text-transform:none;block-progression:tb;-inkscape-font-specification:Bitstream Vera Sans" d="M 11 3 C 7.6551991 3 4.962605 5.3168501 4.25 8.40625 C 2.8946503 9.5109375 2 11.145161 2 13 C 2 15.844444 3.9406564 18.27786 6.6875 18.875 L 7.125 16.9375 C 5.2718436 16.53464 4 14.955556 4 13 C 4 11.613725 4.625929 10.432049 5.65625 9.71875 L 6 9.5 L 6.09375 9.0625 C 6.511613 6.7224674 8.4666667 5 11 5 C 13.754545 5 16 7.2454545 16 10 L 16 11 L 17 11 C 18.654545 11 20 12.345455 20 14 C 20 15.654545 18.654545 17 17 17 L 17 19 C 19.745455 19 22 16.745455 22 14 C 22 11.554199 20.17537 9.607214 17.84375 9.1875 C 17.421413 5.7364436 14.558982 3 11 3 z M 10.71875 15.28125 L 9.28125 16.71875 L 10.5625 18 L 9.28125 19.28125 L 10.71875 20.71875 L 12 19.4375 L 13.28125 20.71875 L 14.71875 19.28125 L 13.4375 18 L 14.71875 16.71875 L 13.28125 15.28125 L 12 16.5625 L 10.71875 15.28125 z" overflow="visible" enable-background="accumulate" font-family="Bitstream Vera Sans"></path>
</symbol><symbol viewBox="0 0 24 24" id="invisible" >
    <path d="M22.8,11.4C22.6,11.1,18,5,12,5S1.4,11.1,1.2,11.4c-0.3,0.4-0.3,0.8,0,1.2C1.4,12.9,6,19,12,19s10.6-6.1,10.8-6.4 C23.1,12.2,23.1,11.8,22.8,11.4z M12,17c-2.8,0-5-2.2-5-5c0-2.8,2.2-5,5-5s5,2.2,5,5C17,14.8,14.8,17,12,17z"></path>
</symbol><symbol viewBox="0 0 24 24" id="user" >
    <path d="M 12 4 C 9.790861 4 8 5.790861 8 8 C 8 10.209139 9.790861 12 12 12 C 14.209139 12 16 10.209139 16 8 C 16 5.790861 14.209139 4 12 4 z M 12 14 C 5.9 14 4 18 4 18 L 4 20 L 20 20 L 20 18 C 20 18 18.1 14 12 14 z"></path>
</symbol><symbol viewBox="0 0 24 24" id="group" >
    <path d="M 7.5 5 C 5.6 5 4 6.6 4 8.5 C 4 10.4 5.6 12 7.5 12 C 9.4 12 11 10.4 11 8.5 C 11 6.6 9.4 5 7.5 5 z M 16.5 5 C 14.567003 5 13 6.5670034 13 8.5 C 13 10.432997 14.567003 12 16.5 12 C 18.432997 12 20 10.432997 20 8.5 C 20 6.5670034 18.432997 5 16.5 5 z M 7.5 14 C 2.6 14 1 18 1 18 L 1 20 L 14 20 L 14 18 C 14 18 12.4 14 7.5 14 z M 16.5 14 C 15 14 13.80625 14.40625 12.90625 14.90625 C 14.30625 16.10625 14.9 17.49375 15 17.59375 L 15.09375 17.8125 L 15.09375 20 L 23.09375 20 L 23.09375 18 C 22.99375 18 21.4 14 16.5 14 z"></path>
</symbol><symbol viewBox="0 0 24 24" id="video-call" >
    <path d="M 4 6 C 2.9 6 2 6.9 2 8 L 2 16 C 2 17.1 2.9 18 4 18 L 15 18 C 16.1 18 17 17.1 17 16 L 17 8 C 17 6.9 16.1 6 15 6 L 4 6 z M 22 7 L 18 10 L 18 14 L 22 17 L 22 7 z"></path>
</symbol><symbol viewBox="0 0 24 24" id="video" >
    <path d="M 4 4 C 3.4777778 4 2.9395305 4.1854695 2.5625 4.5625 C 2.1854695 4.9395305 2 5.4777778 2 6 L 2 18 C 2 18.522222 2.1854695 19.060469 2.5625 19.4375 C 2.9395305 19.814531 3.4777778 20 4 20 L 20 20 C 20.522222 20 21.060469 19.814531 21.4375 19.4375 C 21.814531 19.060469 22 18.522222 22 18 L 22 6 C 22 5.4777778 21.814531 4.9395305 21.4375 4.5625 C 21.060469 4.1854695 20.522222 4 20 4 L 4 4 z M 4 6 L 20 6 L 20 18 L 4 18 L 4 6 z M 10 8 L 10 16 L 16 12 L 10 8 z"></path>
</symbol><symbol viewBox="0 0 26 26" id="file" >
   <path d="M20.266,4.207c-0.244-0.24-0.494-0.484-0.74-0.732c-0.248-0.246-0.492-0.496-0.732-0.74 C17.082,0.988,16.063,0,15,0H7C4.795,0,3,1.795,3,4v18c0,2.205,1.795,4,4,4h12c2.205,0,4-1.795,4-4V8 C23,6.938,22.012,5.918,20.266,4.207z M21,22c0,1.104-0.896,2-2,2H7c-1.104,0-2-0.896-2-2V4c0-1.104,0.896-2,2-2l7.289-0.004 C15.01,2.18,15,3.066,15,3.953V7c0,0.551,0.449,1,1,1h3c0.998,0,2,0.005,2,1V22z"></path>
</symbol><symbol viewBox="0 0 32 32" id="trophy" >
   <path style="text-indent:0;text-align:start;line-height:normal;text-transform:none;block-progression:tb;-inkscape-font-specification:Bitstream Vera Sans" d="M 7 4 C 6.0573243 4 5.0840788 4.3553049 4.3125 5.03125 C 3.5409212 5.7071951 3 6.7475641 3 8 C 3 9.0621054 3.4462038 9.9705186 4 10.6875 C 4.5537962 11.404481 5.2262157 11.973493 5.84375 12.53125 C 7.0788187 13.646764 8 14.564498 8 16 C 8 16.151557 7.8505362 16.520682 7.65625 16.8125 C 7.4619638 17.104318 7.28125 17.28125 7.28125 17.28125 L 8.71875 18.6875 C 8.71875 18.6875 9.0380362 18.365432 9.34375 17.90625 C 9.6052819 17.513429 9.8891375 17.002314 9.96875 16.34375 C 10.082622 16.666054 10.19144 17.000866 10.3125 17.3125 C 11.001756 19.086792 11.793469 20.677434 12.6875 21.875 C 13.013062 22.311095 13.347427 22.698538 13.71875 23.03125 C 11.651627 23.177911 10 24.897697 10 27 L 10 28 L 11 28 L 21 28 L 22 28 L 22 27 C 22 24.876846 20.314606 23.147303 18.21875 23.03125 C 18.595511 22.698464 18.954397 22.309848 19.28125 21.875 C 20.178825 20.680858 20.96247 19.084547 21.65625 17.3125 C 21.786334 16.980241 21.909181 16.62542 22.03125 16.28125 C 22.099585 16.969321 22.386761 17.501478 22.65625 17.90625 C 22.961964 18.365432 23.28125 18.6875 23.28125 18.6875 L 24.71875 17.28125 C 24.71875 17.28125 24.538036 17.104318 24.34375 16.8125 C 24.149464 16.520682 24 16.151557 24 16 C 24 14.564498 24.921181 13.646764 26.15625 12.53125 C 26.773784 11.973493 27.446204 11.404481 28 10.6875 C 28.553796 9.9705186 29 9.0621054 29 8 C 29 6.7475641 28.459079 5.7071951 27.6875 5.03125 C 26.915921 4.3553049 25.942676 4 25 4 C 23.722549 4 22.847137 4.5835824 22.375 5 L 9.625 5 C 9.152709 4.5835824 8.2769884 4 7 4 z M 7 6 C 7.473833 6 7.7779707 6.1489922 8 6.28125 C 8.028288 8.3199929 8.3797793 10.633693 8.9375 12.90625 C 8.4058444 12.186577 7.7404575 11.590156 7.15625 11.0625 C 6.5237843 10.491257 5.9462038 9.9655186 5.5625 9.46875 C 5.1787962 8.9719814 5 8.5428946 5 8 C 5 7.3024359 5.2720788 6.8678049 5.65625 6.53125 C 6.0404212 6.1946951 6.5656757 6 7 6 z M 25 6 C 25.434324 6 25.959579 6.1946951 26.34375 6.53125 C 26.727921 6.8678049 27 7.3024359 27 8 C 27 8.5428946 26.821204 8.9719814 26.4375 9.46875 C 26.053796 9.9655186 25.476216 10.491257 24.84375 11.0625 C 24.244781 11.603489 23.570025 12.224558 23.03125 12.96875 C 23.605754 10.68101 23.970799 8.3486191 24 6.28125 C 24.221917 6.1489922 24.525583 6 25 6 z M 10.125 7 L 21.875 7 C 21.722062 9.9716902 20.954307 13.59754 19.78125 16.59375 C 19.13253 18.250703 18.383175 19.689142 17.65625 20.65625 C 16.929325 21.623358 16.264422 22 15.96875 22 C 15.675102 22 15.036594 21.626184 14.3125 20.65625 C 13.588406 19.686316 12.832244 18.253458 12.1875 16.59375 C 11.022367 13.594449 10.277383 9.9566851 10.125 7 z M 15 10 L 15 15 L 17 15 L 17 10 L 15 10 z M 14 25 L 18 25 C 18.717456 25 19.210082 25.44311 19.5625 26 L 12.4375 26 C 12.789918 25.44311 13.282544 25 14 25 z" overflow="visible" enable-background="accumulate" font-family="Bitstream Vera Sans"></path>
</symbol><symbol viewBox="0 0 24 24" id="home" >
     <path d="M20,20v-8h2v0L12,3L2,12v0h2v8c0,0.6,0.4,1,1,1h5v-7h4v7h5C19.6,21,20,20.6,20,20z"></path>
 </symbol><symbol viewBox="0 0 32 32" id="check" >
    <path style="text-indent:0;text-align:start;line-height:normal;text-transform:none;block-progression:tb;-inkscape-font-specification:Bitstream Vera Sans" d="M 16 3 C 8.8321429 3 3 8.8321429 3 16 C 3 23.167857 8.8321429 29 16 29 C 23.167857 29 29 23.167857 29 16 C 29 8.8321429 23.167857 3 16 3 z M 16 5 C 22.086977 5 27 9.9130231 27 16 C 27 22.086977 22.086977 27 16 27 C 9.9130231 27 5 22.086977 5 16 C 5 9.9130231 9.9130231 5 16 5 z M 22.28125 11.28125 L 15 18.5625 L 10.71875 14.28125 L 9.28125 15.71875 L 14.28125 20.71875 L 15 21.40625 L 15.71875 20.71875 L 23.71875 12.71875 L 22.28125 11.28125 z" overflow="visible" enable-background="accumulate" font-family="Bitstream Vera Sans"></path>
</symbol><symbol viewBox="0 0 32 32" id="checklist">
     <path style="text-indent:0;text-align:start;line-height:normal;text-transform:none;block-progression:tb;-inkscape-font-specification:Bitstream Vera Sans" d="M 4 6 L 4 7 L 4 25 L 4 26 L 5 26 L 27 26 L 28 26 L 28 25 L 28 7 L 28 6 L 27 6 L 5 6 L 4 6 z M 6 8 L 26 8 L 26 24 L 6 24 L 6 8 z M 23.28125 10.28125 L 21 12.5625 L 19.71875 11.28125 L 18.28125 12.71875 L 20.28125 14.71875 L 21 15.40625 L 21.71875 14.71875 L 24.71875 11.71875 L 23.28125 10.28125 z M 8 12 L 8 14 L 16 14 L 16 12 L 8 12 z M 23.28125 16.28125 L 21 18.5625 L 19.71875 17.28125 L 18.28125 18.71875 L 20.28125 20.71875 L 21 21.40625 L 21.71875 20.71875 L 24.71875 17.71875 L 23.28125 16.28125 z M 8 18 L 8 20 L 16 20 L 16 18 L 8 18 z"   overflow="visible" font-family="Bitstream Vera Sans"/>
</symbol><symbol viewBox="0 0 24 24" id="skills" >
   <path d="M 11.90625 2 C 8.20625 2.1 5.1 5.0875 5 8.6875 C 4.9 11.0875 6.0125 13.29375 7.8125 14.59375 C 8.6125 15.19375 9 16.1 9 17 L 15 17 C 15 16.1 15.39375 15.19375 16.09375 14.59375 C 17.89375 13.39375 19 11.3 19 9 C 19 5.1 15.80625 1.9 11.90625 2 z M 9 18 L 9 19 C 9 20.16875 9.6260498 20.672241 10.5625 20.875 C 10.743056 21.5 11.333333 22 12 22 C 12.666667 22 13.256944 21.5 13.4375 20.875 C 14.37395 20.672241 15 20.16875 15 19 L 15 18 L 9 18 z"></path>
</symbol><symbol viewBox="0 0 24 24" id="activity" >
   <path style="text-indent:0;text-align:start;line-height:normal;text-transform:none;block-progression:tb;-inkscape-font-specification:Bitstream Vera Sans" d="M 9.90625 1 L 9.03125 4.78125 L 6.8125 14.34375 L 5.9375 11.6875 L 5.71875 11 L 5 11 L 2 11 L 2 13 L 4.28125 13 L 6.0625 18.3125 L 7.1875 21.6875 L 7.96875 18.21875 L 10.09375 9 L 11.03125 12.28125 L 11.25 13 L 12 13 L 14.28125 13 C 14.627293 13.596896 15.260396 14 16 14 C 17.104569 14 18 13.104569 18 12 C 18 10.895431 17.104569 10 16 10 C 15.260396 10 14.627293 10.403104 14.28125 11 L 12.75 11 L 10.96875 4.71875 L 9.90625 1 z M 16 6 L 16 8 C 18.27619 8 20 9.7238095 20 12 C 20 14.27619 18.27619 16 16 16 L 16 18 C 19.32381 18 22 15.32381 22 12 C 22 8.6761905 19.32381 6 16 6 z"   overflow="visible" enable-background="accumulate" font-family="Bitstream Vera Sans"></path>
</symbol><symbol viewBox="0 0 24 24" id="coffee">
  <path style="text-indent:0;text-align:start;line-height:normal;text-transform:none;block-progression:tb;-inkscape-font-specification:Bitstream Vera Sans" d="M 11 2 C 11 3.2777778 10.78125 3.28125 10.28125 3.78125 C 9.78125 4.28125 9 5.2777778 9 7 L 11 7 C 11 5.7222222 11.21875 5.71875 11.71875 5.21875 C 12.21875 4.71875 13 3.7222222 13 2 L 11 2 z M 14.6875 3 C 14.6875 5.4 13 5.4 13 7 L 15 7 C 15 5.5 16.6875 5.7 16.6875 3 L 14.6875 3 z M 5 8 L 5 14 C 5 16.2 6.8 18 9 18 L 15 18 C 16.9008 18 18.474358 16.659424 18.875 14.875 C 20.663757 14.476192 22 12.909271 22 11 L 22 10 C 22 9.4777778 21.814531 8.9395305 21.4375 8.5625 C 21.060469 8.1854695 20.522222 8 20 8 L 19 8 L 12 8 L 5 8 z M 19 10 L 20 10 L 20 11 C 20 11.810108 19.614932 12.427761 19 12.75 L 19 10 z M 2 19 C 2 20.7 3.3 22 5 22 L 19 22 C 20.7 22 22 20.7 22 19 L 2 19 z"   overflow="visible" enable-background="accumulate" font-family="Bitstream Vera Sans"/>
</symbol><symbol viewBox="0 0 24 24" id="happy">
  <path style="text-indent:0;text-align:start;line-height:normal;text-transform:none;block-progression:tb;-inkscape-font-specification:Bitstream Vera Sans" d="M 12 2 C 6.4666667 2 2 6.4666667 2 12 C 2 17.533333 6.4666667 22 12 22 C 17.533333 22 22 17.533333 22 12 C 22 6.4666667 17.533333 2 12 2 z M 12 4 C 16.466667 4 20 7.5333333 20 12 C 20 16.466667 16.466667 20 12 20 C 7.5333333 20 4 16.466667 4 12 C 4 7.5333333 7.5333333 4 12 4 z M 9 8 C 7.8954305 8 7 8.8954305 7 10 C 7 11.104569 7.8954305 12 9 12 C 10.104569 12 11 11.104569 11 10 C 11 8.8954305 10.104569 8 9 8 z M 15 8 C 13.895431 8 13 8.8954305 13 10 C 13 11.104569 13.895431 12 15 12 C 16.104569 12 17 11.104569 17 10 C 17 8.8954305 16.104569 8 15 8 z M 8.8125 14.34375 L 7.1875 15.46875 C 8.2544683 17.009926 9.9862745 18 12 18 C 14.013725 18 15.745532 17.009926 16.8125 15.46875 L 15.1875 14.34375 C 14.454468 15.402574 13.386275 16 12 16 C 10.613725 16 9.5455317 15.402574 8.8125 14.34375 z"   overflow="visible" enable-background="accumulate" font-family="Bitstream Vera Sans"/>
</symbol><symbol viewBox="0 0 24 24" id="day">
  <path style="text-indent:0;text-align:start;line-height:normal;text-transform:none;block-progression:tb;-inkscape-font-specification:Bitstream Vera Sans" d="M 2 2 L 2 4 L 4 4 L 4 2 L 2 2 z M 7 2 L 7 4 L 22 4 L 22 2 L 7 2 z M 2 8 L 2 10 L 4 10 L 4 8 L 2 8 z M 7 8 L 7 10 L 22 10 L 22 8 L 7 8 z M 2 14 L 2 16 L 4 16 L 4 14 L 2 14 z M 7 14 L 7 16 L 22 16 L 22 14 L 7 14 z M 2 20 L 2 22 L 4 22 L 4 20 L 2 20 z M 7 20 L 7 22 L 22 22 L 22 20 L 7 20 z"/>
</symbol><symbol viewBox="0 0 24 24" id="month">
  <path style="text-indent:0;text-align:start;line-height:normal;text-transform:none;block-progression:tb;-inkscape-font-specification:Bitstream Vera Sans" d="M 2 2 L 2 3 L 2 21 L 2 22 L 3 22 L 21 22 L 22 22 L 22 21 L 22 3 L 22 2 L 21 2 L 3 2 L 2 2 z M 4 4 L 8 4 L 8 8 L 4 8 L 4 4 z M 10 4 L 14 4 L 14 8 L 10 8 L 10 4 z M 16 4 L 20 4 L 20 8 L 16 8 L 16 4 z M 4 10 L 8 10 L 8 14 L 4 14 L 4 10 z M 10 10 L 14 10 L 14 14 L 10 14 L 10 10 z M 16 10 L 20 10 L 20 14 L 16 14 L 16 10 z M 4 16 L 8 16 L 8 20 L 4 20 L 4 16 z M 10 16 L 14 16 L 14 20 L 10 20 L 10 16 z M 16 16 L 20 16 L 20 20 L 16 20 L 16 16 z" overflow="visible" enable-background="accumulate" font-family="Bitstream Vera Sans"/>
</symbol><symbol viewBox="0 0 24 24" id="subscribe">
  <path d="M 6.90625 2.5 C 4.60625 4.2 3 6.9 3 10 C 3 12.5 4.1125 14.8 5.8125 16.5 L 6.8125 14.6875 C 5.7125 13.3875 5 11.8 5 10 C 5 7.7 6.20625 5.6125 7.90625 4.3125 L 6.90625 2.5 z M 17.09375 2.59375 L 16.09375 4.40625 C 17.79375 5.60625 19 7.7 19 10 C 19 11.8 18.2875 13.39375 17.1875 14.59375 L 18.1875 16.40625 C 19.8875 14.80625 21 12.50625 21 9.90625 C 21 6.90625 19.39375 4.19375 17.09375 2.59375 z M 8.90625 6.09375 C 7.70625 6.99375 7 8.4 7 10 C 7 11 7.3125 11.8875 7.8125 12.6875 L 9 10.5 L 9 10 C 9 9.2 9.30625 8.40625 9.90625 7.90625 L 8.90625 6.09375 z M 15.09375 6.09375 L 14.09375 7.90625 C 14.69375 8.40625 15 9.2 15 10 L 15 10.5 L 16.1875 12.8125 C 16.6875 11.9125 17 11 17 10 C 17 8.4 16.29375 6.99375 15.09375 6.09375 z M 12 9 C 11.447715 9 11 9.4477153 11 10 L 8 22 L 10 22 L 12 14 L 14 22 L 16 22 L 13 10 C 13 9.4477153 12.552285 9 12 9 z"/>
</symbol><symbol viewBox="0 0 24 24" id="reading">
  <path style="text-indent:0;text-align:start;line-height:normal;text-transform:none;block-progression:tb;-inkscape-font-specification:Bitstream Vera Sans" d="M 12 2 C 9.8 2 8 3.8 8 6 L 8 6.3125 C 9.6 6.5125 11 6.9 12 7.5 C 13 6.9 14.4 6.5125 16 6.3125 L 16 6 C 16 3.8 14.2 2 12 2 z M 3 7 L 3 8 L 3 12 C 2.4 12 2 12.4 2 13 L 2 15 C 2 15.6 2.4 16 3 16 L 4 16 C 5.1 16 6 15.1 6 14 C 6 13.263455 5.5968777 12.628312 5 12.28125 L 5 9.0625 C 7.6570857 9.161738 9.3871911 9.5366683 10.21875 9.90625 C 10.660224 10.102461 10.875051 10.29643 11 10.40625 L 11 15 L 11 19.21875 C 10.869506 19.149136 10.734553 19.093369 10.59375 19.03125 C 9.3077148 18.463882 7.4043178 18.14498 5 18.0625 L 5 17 L 3 17 L 3 19 L 3 20 L 4 20 C 6.8137931 20 8.7094178 20.370883 9.78125 20.84375 C 10.853082 21.316617 11 21.738889 11 22 L 13 22 C 13 21.738889 13.146918 21.316617 14.21875 20.84375 C 15.290582 20.370883 17.186207 20 20 20 L 21 20 L 21 19 L 21 17 L 19 17 L 19 18.0625 C 16.595682 18.14498 14.692285 18.463882 13.40625 19.03125 C 13.265447 19.093369 13.130494 19.149136 13 19.21875 L 13 15 L 13 10.40625 C 13.124949 10.29643 13.339776 10.102461 13.78125 9.90625 C 14.612809 9.5366683 16.342914 9.1617377 19 9.0625 L 19 12.28125 C 18.403122 12.628312 18 13.263455 18 14 C 18 15.1 18.9 16 20 16 L 21 16 C 21.6 16 22 15.6 22 15 L 22 13 C 22 12.4 21.6 12 21 12 L 21 8 L 21 7 L 20 7 C 16.404762 7 14.269604 7.5155928 12.96875 8.09375 C 12.549864 8.2799213 12.25885 8.4764312 12 8.65625 C 11.74115 8.4764312 11.450136 8.2799213 11.03125 8.09375 C 9.7303962 7.5155928 7.5952381 7 4 7 L 3 7 z" overflow="visible" enable-background="accumulate" font-family="Bitstream Vera Sans"/>
</symbol><symbol viewBox="0 0 24 24" id="down-arrow">
  <path style="text-indent:0;text-align:start;line-height:normal;text-transform:none;block-progression:tb;-inkscape-font-specification:Bitstream Vera Sans" d="M 15 4 L 15 24.0625 L 8.21875 17.28125 L 6.78125 18.71875 L 15.28125 27.21875 L 16 27.90625 L 16.71875 27.21875 L 25.21875 18.71875 L 23.78125 17.28125 L 17 24.0625 L 17 4 L 15 4 z"   overflow="visible" font-family="Bitstream Vera Sans"/>
</symbol><symbol viewBox="0 0 24 24" id="reading">
  <path style="text-indent:0;text-align:start;line-height:normal;text-transform:none;block-progression:tb;-inkscape-font-specification:Bitstream Vera Sans" d="M 12 2 C 9.8 2 8 3.8 8 6 L 8 6.3125 C 9.6 6.5125 11 6.9 12 7.5 C 13 6.9 14.4 6.5125 16 6.3125 L 16 6 C 16 3.8 14.2 2 12 2 z M 3 7 L 3 8 L 3 12 C 2.4 12 2 12.4 2 13 L 2 15 C 2 15.6 2.4 16 3 16 L 4 16 C 5.1 16 6 15.1 6 14 C 6 13.263455 5.5968777 12.628312 5 12.28125 L 5 9.0625 C 7.6570857 9.161738 9.3871911 9.5366683 10.21875 9.90625 C 10.660224 10.102461 10.875051 10.29643 11 10.40625 L 11 15 L 11 19.21875 C 10.869506 19.149136 10.734553 19.093369 10.59375 19.03125 C 9.3077148 18.463882 7.4043178 18.14498 5 18.0625 L 5 17 L 3 17 L 3 19 L 3 20 L 4 20 C 6.8137931 20 8.7094178 20.370883 9.78125 20.84375 C 10.853082 21.316617 11 21.738889 11 22 L 13 22 C 13 21.738889 13.146918 21.316617 14.21875 20.84375 C 15.290582 20.370883 17.186207 20 20 20 L 21 20 L 21 19 L 21 17 L 19 17 L 19 18.0625 C 16.595682 18.14498 14.692285 18.463882 13.40625 19.03125 C 13.265447 19.093369 13.130494 19.149136 13 19.21875 L 13 15 L 13 10.40625 C 13.124949 10.29643 13.339776 10.102461 13.78125 9.90625 C 14.612809 9.5366683 16.342914 9.1617377 19 9.0625 L 19 12.28125 C 18.403122 12.628312 18 13.263455 18 14 C 18 15.1 18.9 16 20 16 L 21 16 C 21.6 16 22 15.6 22 15 L 22 13 C 22 12.4 21.6 12 21 12 L 21 8 L 21 7 L 20 7 C 16.404762 7 14.269604 7.5155928 12.96875 8.09375 C 12.549864 8.2799213 12.25885 8.4764312 12 8.65625 C 11.74115 8.4764312 11.450136 8.2799213 11.03125 8.09375 C 9.7303962 7.5155928 7.5952381 7 4 7 L 3 7 z" overflow="visible" enable-background="accumulate" font-family="Bitstream Vera Sans"/>
</symbol><symbol viewBox="0 0 24 24" id="student" >
   <path d="M 12 3 L 1 9 L 12 15 L 21 10.09375 L 21 17 L 23 17 L 23 9 L 12 3 z M 5 12.8125 L 5 17.1875 L 12 21 L 19 17.1875 L 19 12.8125 L 12 17 L 5 12.8125 z"></path>
</symbol><symbol viewBox="0 0 26 26" id="admin" >
   <path d="M16.049,16.417c0,0-1.379-0.31-0.725-1.679c0.805-1.078,1.297-2.301,1.336-2.701 c0,0,1.241-0.973,1.313-2.434c0.078-1.457-0.271-1.525-0.271-1.525c0.521-1.589,0.69-7.553-3.154-6.841 c-0.642-1.251-4.66-2.232-6.533,1.101C7.08,4,6.732,6.269,7.461,8.12C7.434,8.258,7.203,7.985,7.119,8.841 c-0.081,0.825,0.292,2.008,0.698,2.556c0.176,0.231,0.458,0.4,0.657,0.486c0,0,0.243,1.47,1.396,2.855 c0.265,1.099-0.831,1.679-0.831,1.679c-3.629,0.695-6.965,2.701-6.965,4.871c0,0.16,0,1.681,0,1.681 c0,2.355,5.51,2.86,10.468,2.86c4.959,0,10.432-1.419,10.432-2.86c0,0,0-1.521,0-1.681C22.973,19.118,19.676,17.112,16.049,16.417 z M10.969,24.808c0-2.808,1.236-4.745,1.236-4.745l-1.268-0.703c0-0.609,1.586-1.313,1.586-1.313s1.519,0.672,1.519,1.313 l-1.201,0.703c0,0,1.206,1.938,1.206,4.771C14.047,25.226,10.969,25.135,10.969,24.808z"></path>
</symbol><symbol viewBox="0 0 24 24" id="linkedin" >
     <path d="M20,2H4C2.9,2,2,2.9,2,4v16c0,1.1,0.9,2,2,2h16c1.1,0,2-0.9,2-2V4C22,2.9,21.1,2,20,2z M8.1,18H5V9.4h3.1V18z M6.5,8.4 L6.5,8.4C5.6,8.4,5,7.8,5,7c0-0.8,0.6-1.4,1.6-1.4c0.9,0,1.5,0.6,1.5,1.4C8.1,7.8,7.5,8.4,6.5,8.4z M19,18h-3.1v-4.7 c0-1.3-0.8-1.6-1.1-1.6s-1.3,0.2-1.3,1.6c0,0.2,0,4.7,0,4.7h-3.1V9.4h3.1v1.2c0.4-0.7,1.2-1.2,2.7-1.2c1.5,0,2.7,1.2,2.7,3.9V18z"></path>
 </symbol><symbol viewBox="0 0 48 48" id="info" >
  <circle cx="24" cy="24" r="21"></circle>
  <rect x="22" y="22" fill="#FFFFFF" width="4" height="11"></rect>
  <circle fill="#FFFFFF" cx="24" cy="16.5" r="2.5"></circle>
</symbol><symbol viewBox="0 0 24 24" id="people" >
   <path d="M 4 2 L 4 5 L 3 5 L 3 7 L 6 7 L 6 8 L 4 8 L 4 10 L 3 10 L 3 12 L 4 12 L 6 12 L 6 13 L 4 13 L 4 15 L 3 15 L 3 17 L 6 17 L 6 18 L 4 18 L 4 22 L 18 22 C 19.105 22 20 21.105 20 20 L 20 4 C 20 2.895 19.105 2 18 2 L 4 2 z M 12 8 C 13.105 8 14 8.895 14 10 C 14 11.105 13.105 12 12 12 C 10.895 12 10 11.105 10 10 C 10 8.895 10.895 8 12 8 z M 11.3125 13.34375 C 11.529064 13.327393 11.758375 13.34375 12 13.34375 C 13.933 13.34375 15.05275 13.9175 15.59375 14.3125 C 15.85475 14.5035 16 14.802 16 15.125 L 16 16 L 8 16 L 8 15.125 C 8 14.802 8.14525 14.5035 8.40625 14.3125 C 8.87875 13.966875 9.7965488 13.458252 11.3125 13.34375 z"></path>
</symbol><symbol viewBox="0 0 26 26" id="directory" >
   <path style="text-indent:0;text-align:start;line-height:normal;text-transform:none;block-progression:tb;-inkscape-font-specification:Bitstream Vera Sans" d="M 0.8125 0 A 1.0001 1.0001 0 0 0 0 1 L 0 9 A 1.0001 1.0001 0 0 0 1 10 L 4 10 L 4 16 L 1 16 C 0.4 16 0 16.4 0 17 L 0 25 C 0 25.6 0.4 26 1 26 L 9 26 C 9.6 26 10 25.6 10 25 L 10 22 L 16 22 L 16 25 A 1.0001 1.0001 0 0 0 17 26 L 25 26 A 1.0001 1.0001 0 0 0 26 25 L 26 17 A 1.0001 1.0001 0 0 0 25 16 L 22 16 L 22 10 L 25 10 A 1.0001 1.0001 0 0 0 26 9 L 26 1 A 1.0001 1.0001 0 0 0 25 0 L 17 0 A 1.0001 1.0001 0 0 0 16.90625 0 A 1.0001 1.0001 0 0 0 16 1 L 16 4 L 10 4 L 10 1 A 1.0001 1.0001 0 0 0 9 0 L 1 0 A 1.0001 1.0001 0 0 0 0.90625 0 A 1.0001 1.0001 0 0 0 0.8125 0 z M 2 2 L 8 2 L 8 8 L 2 8 L 2 2 z M 18 2 L 24 2 L 24 8 L 18 8 L 18 2 z M 10 6 L 16 6 L 16 9 A 1.0001 1.0001 0 0 0 17 10 L 20 10 L 20 16 L 17 16 A 1.0001 1.0001 0 0 0 16.90625 16 A 1.0001 1.0001 0 0 0 16.8125 16 A 1.0001 1.0001 0 0 0 16 17 L 16 20 L 10 20 L 10 17 C 10 16.4 9.6 16 9 16 L 6 16 L 6 10 L 9 10 A 1.0001 1.0001 0 0 0 10 9 L 10 6 z M 18 18 L 24 18 L 24 24 L 18 24 L 18 18 z"></path>
</symbol><symbol viewBox="0 0 24 24" id="camera" >
    <path d="M 9 2 L 7 4 L 4 4 C 2.9 4 2 4.9 2 6 L 2 18 C 2 19.1 2.9 20 4 20 L 20 20 C 21.1 20 22 19.1 22 18 L 22 6 C 22 4.9 21.1 4 20 4 L 17 4 L 15 2 L 9 2 z M 12 7 C 14.8 7 17 9.2 17 12 C 17 14.8 14.8 17 12 17 C 9.2 17 7 14.8 7 12 C 7 9.2 9.2 7 12 7 z M 12 8.5 C 10.067003 8.5 8.5 10.067003 8.5 12 C 8.5 13.932997 10.067003 15.5 12 15.5 C 13.932997 15.5 15.5 13.932997 15.5 12 C 15.5 10.067003 13.932997 8.5 12 8.5 z"></path>
</symbol><symbol viewBox="0 0 26 26" id="list-numbered">
    <path d="M 2.8125 1 L 1.5 1.6875 C 1.4 1.6875 1.30625 1.80625 1.40625 1.90625 L 1.59375 2.59375 C 1.49375 2.79375 1.5875 2.80625 1.6875 2.90625 L 1.90625 2.90625 L 2.5 2.59375 L 2.5 6.5 C 2.5 6.6 2.5875 6.6875 2.6875 6.6875 L 3.6875 6.6875 C 3.7875 6.6875 3.90625 6.6 3.90625 6.5 L 3.90625 1.3125 C 3.90625 1.1125 3.7875 1 3.6875 1 L 2.90625 1 L 2.8125 1 z M 9 3 L 9 5 L 26 5 L 26 3 L 9 3 z M 2.8125 10 C 2.1125 10 1.5 10.19375 1 10.59375 C 0.9 10.69375 0.90625 10.80625 0.90625 10.90625 L 1.1875 11.59375 C 1.1875 11.69375 1.30625 11.6875 1.40625 11.6875 L 1.59375 11.6875 C 1.89375 11.3875 2.29375 11.3125 2.59375 11.3125 C 3.09375 11.3125 3.3125 11.50625 3.3125 11.90625 C 3.3125 12.50625 2.79375 12.9875 1.59375 14.1875 L 1 14.6875 L 1 14.90625 L 1 15.5 C 1 15.6 1.0875 15.6875 1.1875 15.6875 L 4.6875 15.6875 C 4.7875 15.6875 4.90625 15.6 4.90625 15.5 L 4.90625 14.6875 C 5.00625 14.4875 4.8875 14.40625 4.6875 14.40625 L 3.1875 14.40625 C 3.9875 13.60625 4.8125 12.8125 4.8125 11.8125 C 4.8125 10.9125 4.2125 10 2.8125 10 z M 9 12 L 9 14 L 26 14 L 26 12 L 9 12 z M 2.8125 18.90625 C 2.1125 18.90625 1.4875 19.1125 1.1875 19.3125 C 1.0875 19.4125 1.09375 19.49375 1.09375 19.59375 L 1.3125 20.3125 C 1.3125 20.4125 1.4 20.4 1.5 20.5 L 1.6875 20.5 C 1.8875 20.4 2.29375 20.1875 2.59375 20.1875 C 2.79375 20.1875 3.1875 20.29375 3.1875 20.59375 C 3.1875 20.99375 2.60625 21.09375 2.40625 21.09375 L 2 21.09375 C 1.9 21.09375 1.8125 21.2125 1.8125 21.3125 L 1.8125 22 C 1.8125 22.1 1.9 22.1875 2 22.1875 L 2.40625 22.1875 C 2.60625 22.1875 3.3125 22.2125 3.3125 22.8125 C 3.3125 23.2125 3 23.40625 2.5 23.40625 C 2.1 23.40625 1.60625 23.19375 1.40625 23.09375 L 1.1875 23.09375 C 1.0875 23.09375 1.09375 23.2125 1.09375 23.3125 L 0.90625 24 C 0.90625 24.1 0.9 24.2125 1 24.3125 C 1.3 24.5125 1.89375 24.6875 2.59375 24.6875 C 4.19375 24.6875 4.90625 23.80625 4.90625 22.90625 C 4.90625 22.40625 4.59375 21.89375 4.09375 21.59375 C 4.49375 21.29375 4.6875 20.90625 4.6875 20.40625 C 4.6875 19.60625 4.1125 18.90625 2.8125 18.90625 z M 9 21 L 9 23 L 26 23 L 26 21 L 9 21 z"/>
</symbol><symbol viewBox="0 0 50 50" id="list-view" >
   <path style="text-indent:0;text-align:start;line-height:normal;text-transform:none;block-progression:tb;-inkscape-font-specification:Bitstream Vera Sans" d="M 3 7 C 2.448 7 2 7.448 2 8 L 2 12 C 2 12.552 2.448 13 3 13 L 7 13 C 7.552 13 8 12.552 8 12 L 8 8 C 8 7.448 7.552 7 7 7 L 3 7 z M 11.8125 8 A 2.0021961 2.0021961 0 1 0 12 12 L 46 12 A 2.0002 2.0002 0 1 0 46 8 L 12 8 A 2.0002 2.0002 0 0 0 11.8125 8 z M 3 17 C 2.448 17 2 17.448 2 18 L 2 22 C 2 22.552 2.448 23 3 23 L 7 23 C 7.552 23 8 22.552 8 22 L 8 18 C 8 17.448 7.552 17 7 17 L 3 17 z M 11.8125 18 A 2.0021961 2.0021961 0 1 0 12 22 L 46 22 A 2.0002 2.0002 0 1 0 46 18 L 12 18 A 2.0002 2.0002 0 0 0 11.8125 18 z M 3 27 C 2.448 27 2 27.447 2 28 L 2 32 C 2 32.553 2.448 33 3 33 L 7 33 C 7.552 33 8 32.553 8 32 L 8 28 C 8 27.447 7.552 27 7 27 L 3 27 z M 11.8125 28 A 2.0021961 2.0021961 0 1 0 12 32 L 46 32 A 2.0002 2.0002 0 1 0 46 28 L 12 28 A 2.0002 2.0002 0 0 0 11.8125 28 z M 3 37 C 2.448 37 2 37.447 2 38 L 2 42 C 2 42.553 2.448 43 3 43 L 7 43 C 7.552 43 8 42.553 8 42 L 8 38 C 8 37.447 7.552 37 7 37 L 3 37 z M 11.8125 38 A 2.0021961 2.0021961 0 1 0 12 42 L 46 42 A 2.0002 2.0002 0 1 0 46 38 L 12 38 A 2.0002 2.0002 0 0 0 11.8125 38 z" overflow="visible" enable-background="accumulate" font-family="Bitstream Vera Sans"></path>
</symbol><symbol viewBox="0 0 24 24" id="grid-view" >
   <path style="text-indent:0;text-align:start;line-height:normal;text-transform:none;block-progression:tb;-inkscape-font-specification:Bitstream Vera Sans" d="M 2 2 L 2 3 L 2 21 L 2 22 L 3 22 L 21 22 L 22 22 L 22 21 L 22 3 L 22 2 L 21 2 L 3 2 L 2 2 z M 4 4 L 8 4 L 8 8 L 4 8 L 4 4 z M 10 4 L 14 4 L 14 8 L 10 8 L 10 4 z M 16 4 L 20 4 L 20 8 L 16 8 L 16 4 z M 4 10 L 8 10 L 8 14 L 4 14 L 4 10 z M 10 10 L 14 10 L 14 14 L 10 14 L 10 10 z M 16 10 L 20 10 L 20 14 L 16 14 L 16 10 z M 4 16 L 8 16 L 8 20 L 4 20 L 4 16 z M 10 16 L 14 16 L 14 20 L 10 20 L 10 16 z M 16 16 L 20 16 L 20 20 L 16 20 L 16 16 z" overflow="visible" enable-background="accumulate" font-family="Bitstream Vera Sans"></path>
</symbol><symbol viewBox="0 0 24 24" id="copy-item" >
   <path d="M 5 2 C 3.9 2 3 2.9 3 4 L 3 17 L 5 17 L 5 4 L 15 4 L 15 2 L 5 2 z M 9 6 C 7.9 6 7 6.9 7 8 L 7 20 C 7 21.1 7.9 22 9 22 L 18 22 C 19.1 22 20 21.1 20 20 L 20 8 C 20 6.9 19.1 6 18 6 L 9 6 z M 9 8 L 18 8 L 18 20 L 9 20 L 9 8 z"></path>
</symbol><symbol viewBox="0 0 24 24" id="copy-link" >
   <path style="text-indent:0;text-align:start;line-height:normal;text-transform:none;block-progression:tb;-inkscape-font-specification:Bitstream Vera Sans" d="M 5 7 C 2.2 7 0 9.2 0 12 C 0 14.8 2.2 17 5 17 L 8 17 C 9.6 17 11.1 16.2 12 15 C 12.9 16.2 14.4 17 16 17 L 19 17 C 21.8 17 24 14.8 24 12 C 24 9.2 21.8 7 19 7 L 16 7 C 14.4 7 12.9 7.8 12 9 C 11.1 7.8 9.6 7 8 7 L 5 7 z M 5 9 L 8 9 C 8.9 9 9.6875 9.4 10.1875 10 L 13.8125 10 C 14.3125 9.4 15.1 9 16 9 L 19 9 C 20.7 9 22 10.3 22 12 C 22 13.7 20.7 15 19 15 L 16 15 C 15.1 15 14.3125 14.6 13.8125 14 L 10.1875 14 C 9.6875 14.6 8.9 15 8 15 L 5 15 C 3.3 15 2 13.7 2 12 C 2 10.3 3.3 9 5 9 z M 7.8125 11 A 1.001098 1.001098 0 0 0 8 13 L 16 13 A 1.0001 1.0001 0 1 0 16 11 L 8 11 A 1.0001 1.0001 0 0 0 7.90625 11 A 1.001098 1.001098 0 0 0 7.8125 11 z" overflow="visible" enable-background="accumulate" font-family="Bitstream Vera Sans"></path>
</symbol><symbol viewBox="0 0 24 24" id="collapse-arrow">
  <path style="text-indent:0;text-align:start;line-height:normal;text-transform:none;block-progression:tb;-inkscape-font-specification:Bitstream Vera Sans" d="M 12 6.65625 L 11.34375 7.25 L 1.34375 16.25 L 2.65625 17.75 L 12 9.34375 L 21.34375 17.75 L 22.65625 16.25 L 12.65625 7.25 L 12 6.65625 z" overflow="visible" enable-background="accumulate" font-family="Bitstream Vera Sans"/>
</symbol><symbol viewBox="0 0 24 24" id="quiz-list">
  <path style="text-indent:0;text-align:start;line-height:normal;text-transform:none;block-progression:tb;-inkscape-font-specification:Bitstream Vera Sans" d="M 6 0 C 4.344 0 3 1.344 3 3 L 3 23 C 3 24.656 4.344 26 6 26 L 20 26 C 21.656 26 23 24.656 23 23 L 23 3 C 23 1.344 21.656 0 20 0 L 6 0 z M 5 2 L 21 2 L 21 24 L 5 24 L 5 2 z M 7 6 L 7 8 L 9 8 L 9 6 L 7 6 z M 11 6 L 11 8 L 19 8 L 19 6 L 11 6 z M 7 10 L 7 12 L 9 12 L 9 10 L 7 10 z M 11 10 L 11 12 L 18 12 L 18 10 L 11 10 z M 7 14 L 7 16 L 9 16 L 9 14 L 7 14 z M 11 14 L 11 16 L 19 16 L 19 14 L 11 14 z M 7 18 L 7 20 L 9 20 L 9 18 L 7 18 z M 11 18 L 11 20 L 18 20 L 18 18 L 11 18 z"/>
</symbol><symbol viewBox="0 0 26 26" id="true-false">
  <path d="M 8.28125 4.28125 L 4 8.5625 L 1.71875 6.28125 L 0.28125 7.71875 L 3.28125 10.71875 L 4 11.40625 L 4.71875 10.71875 L 9.71875 5.71875 L 8.28125 4.28125 z M 11 7 L 11 9 L 26 9 L 26 7 L 11 7 z M 1.71875 14.28125 L 0.28125 15.71875 L 2.5625 18 L 0.28125 20.28125 L 1.71875 21.71875 L 4 19.4375 L 6.28125 21.71875 L 7.71875 20.28125 L 5.4375 18 L 7.71875 15.71875 L 6.28125 14.28125 L 4 16.5625 L 1.71875 14.28125 z M 11 17 L 11 19 L 26 19 L 26 17 L 11 17 z"/>
</symbol><symbol viewBox="0 0 26 26" id="multiple-choice">
   <path d="M 2 2 L 2 8 L 8 8 L 8 2 L 2 2 z M 10 4 L 10 6 L 24 6 L 24 4 L 10 4 z M 2 10 L 2 11 L 2 15 L 2 16 L 3 16 L 7 16 L 8 16 L 8 15 L 8 11 L 8 10 L 7 10 L 3 10 L 2 10 z M 4 12 L 6 12 L 6 14 L 4 14 L 4 12 z M 10 12 L 10 14 L 24 14 L 24 12 L 10 12 z M 2 18 L 2 24 L 8 24 L 8 18 L 2 18 z M 10 20 L 10 22 L 24 22 L 24 20 L 10 20 z"/>
</symbol><symbol viewBox="0 0 50 50" id="todo-list">
  <path style="text-indent:0;text-align:start;line-height:normal;text-transform:none;block-progression:tb;-inkscape-font-specification:Bitstream Vera Sans" d="M 13.09375 4.78125 L 7.90625 11.375 L 6 9.6875 L 3.34375 12.6875 L 6.84375 15.8125 L 8.4375 17.21875 L 9.75 15.53125 L 16.25 7.21875 L 13.09375 4.78125 z M 19 9 L 19 13 L 46 13 L 46 9 L 19 9 z M 13.09375 18.78125 L 7.90625 25.375 L 6 23.6875 L 3.34375 26.6875 L 6.84375 29.8125 L 8.4375 31.21875 L 9.75 29.53125 L 16.25 21.21875 L 13.09375 18.78125 z M 19 23 L 19 27 L 46 27 L 46 23 L 19 23 z M 13.09375 32.78125 L 7.90625 39.375 L 6 37.6875 L 3.34375 40.6875 L 6.84375 43.8125 L 8.4375 45.21875 L 9.75 43.53125 L 16.25 35.21875 L 13.09375 32.78125 z M 19 37 L 19 41 L 46 41 L 46 37 L 19 37 z"/>
</symbol><symbol viewBox="0 0 24 24" id="stats">
  <path style="text-indent:0;text-align:start;line-height:normal;text-transform:none;block-progression:tb;-inkscape-font-specification:Bitstream Vera Sans" d="M 12 2 C 6.4889972 2 2 6.4889972 2 12 C 2 17.511003 6.4889972 22 12 22 C 17.511003 22 22 17.511003 22 12 C 22 6.4889972 17.511003 2 12 2 z M 12 4 C 13.097416 4 14.143098 4.2280671 15.09375 4.625 L 12 12 L 20 12 C 20 16.430123 16.430123 20 12 20 C 7.5698774 20 4 16.430123 4 12 C 4 7.5698774 7.5698774 4 12 4 z" overflow="visible" enable-background="accumulate" font-family="Bitstream Vera Sans"/>
</symbol><symbol viewBox="0 0 50 50" id="checklist">
  <path style="text-indent:0;text-align:start;line-height:normal;text-transform:none;block-progression:tb;-inkscape-font-specification:Bitstream Vera Sans" d="M 1 0 C 0.448 0 0 0.448 0 1 L 0 13 C 0 13.552 0.448 14 1 14 L 13 14 C 13.552 14 14 13.552 14 13 L 14 1 C 14 0.448 13.552 0 13 0 L 1 0 z M 10.25 3.34375 L 11.75 4.65625 L 6.59375 10.40625 L 2.34375 6.75 L 3.65625 5.25 L 6.40625 7.59375 L 10.25 3.34375 z M 20 6 L 20 8 L 50 8 L 50 6 L 20 6 z M 1 18 C 0.448 18 0 18.448 0 19 L 0 31 C 0 31.553 0.448 32 1 32 L 13 32 C 13.552 32 14 31.553 14 31 L 14 19 C 14 18.448 13.552 18 13 18 L 1 18 z M 10.25 21.34375 L 11.75 22.65625 L 6.59375 28.40625 L 2.34375 24.75 L 3.65625 23.25 L 6.40625 25.59375 L 10.25 21.34375 z M 20 24 L 20 26 L 50 26 L 50 24 L 20 24 z M 1 36 C 0.448 36 0 36.447 0 37 L 0 49 C 0 49.553 0.448 50 1 50 L 13 50 C 13.552 50 14 49.553 14 49 L 14 37 C 14 36.447 13.552 36 13 36 L 1 36 z M 20 42 L 20 44 L 50 44 L 50 42 L 20 42 z"/>
</symbol><symbol viewBox="0 0 32 32" id="archive">
  <path style="text-indent:0;text-align:start;line-height:normal;text-transform:none;block-progression:tb;-inkscape-font-specification:Bitstream Vera Sans" d="M 6 4 L 6 5 L 6 27 L 6 28 L 7 28 L 25 28 L 26 28 L 26 27 L 26 5 L 26 4 L 25 4 L 7 4 L 6 4 z M 8 6 L 24 6 L 24 11 L 8 11 L 8 6 z M 14 8 L 14 10 L 18 10 L 18 8 L 14 8 z M 8 13 L 24 13 L 24 19 L 8 19 L 8 13 z M 14 15 L 14 17 L 18 17 L 18 15 L 14 15 z M 8 21 L 24 21 L 24 26 L 8 26 L 8 21 z M 14 22 L 14 24 L 18 24 L 18 22 L 14 22 z"/>
</symbol><symbol viewBox="0 0 50 50" id="ios7-magical-scroll" >
   <path style="text-indent:0;text-align:start;line-height:normal;text-transform:none;block-progression:tb;-inkscape-font-specification:Bitstream Vera Sans" d="M 16 5 C 13.250484 5 11 7.2504839 11 10 L 11 22 A 1.0001 1.0001 0 0 0 11.6875 22.9375 L 11.875 23 L 11.6875 23.0625 A 1.0001 1.0001 0 0 0 11 24 L 11 36 L 6 36 A 1.0001 1.0001 0 0 0 5.90625 36 A 1.0001 1.0001 0 0 0 5 37 L 5 40 C 5 42.749516 7.2504839 45 10 45 L 32 45 C 34.749516 45 37 42.749516 37 40 L 37 35 A 1.0001 1.0001 0 0 0 36.25 34.03125 L 36.125 34 L 36.25 33.96875 A 1.0001 1.0001 0 0 0 37 33 L 37 23 A 1.0001 1.0001 0 0 0 36.71875 22.28125 L 36.4375 22 L 36.71875 21.71875 A 1.0001 1.0001 0 0 0 37 21 L 37 20 A 1.0001 1.0001 0 0 0 36.3125 19.0625 L 36.125 19 L 36.3125 18.9375 A 1.0001 1.0001 0 0 0 37 18 L 37 14 L 44 14 A 1.0001 1.0001 0 0 0 45 13 L 45 10 C 45 7.3039764 42.832584 5.0852138 40.15625 5 C 40.14563 4.9996619 40.135636 5.0002709 40.125 5 A 1.0001 1.0001 0 0 0 40 5 L 39.8125 5 L 16 5 z M 16 7 L 36.125 7 C 35.468136 7.8464167 35 8.8522948 35 10 L 35 12.8125 A 1.0001 1.0001 0 0 0 35 13.21875 L 35 17.28125 L 32.6875 18.0625 A 1.0001 1.0001 0 0 0 32.6875 19.9375 L 34.875 20.6875 L 34.28125 21.28125 A 1.0001 1.0001 0 0 0 34.28125 22.71875 L 35 23.4375 L 35 32.21875 L 31.75 33.03125 A 1.0001 1.0001 0 0 0 31.75 34.96875 L 35 35.78125 L 35 40 C 35 41.668484 33.668484 43 32 43 C 30.331516 43 29 41.668484 29 40 L 29 37 A 1.0001 1.0001 0 0 0 28 36 L 13 36 L 13 24.71875 L 15.3125 23.9375 A 1.0001 1.0001 0 0 0 15.3125 22.0625 L 13 21.28125 L 13 10 C 13 8.3315161 14.331516 7 16 7 z M 39.84375 7 A 1.001098 1.001098 0 0 0 40 7 A 1.0001 1.0001 0 0 0 40.09375 7 C 41.716394 7.0505975 43 8.3640858 43 10 L 43 12 L 37 12 L 37 10 C 37 8.385799 38.25178 7.0828025 39.84375 7 z M 18.71875 16 A 1.0043849 1.0043849 0 0 0 19 18 L 29 18 A 1.0001 1.0001 0 1 0 29 16 L 19 16 A 1.0001 1.0001 0 0 0 18.90625 16 A 1.001098 1.001098 0 0 0 18.8125 16 A 1.0043849 1.0043849 0 0 0 18.71875 16 z M 18.71875 20 A 1.0043849 1.0043849 0 0 0 19 22 L 25 22 A 1.0001 1.0001 0 1 0 25 20 L 19 20 A 1.0001 1.0001 0 0 0 18.90625 20 A 1.001098 1.001098 0 0 0 18.8125 20 A 1.0043849 1.0043849 0 0 0 18.71875 20 z M 18.71875 24 A 1.0043849 1.0043849 0 0 0 19 26 L 29 26 A 1.0001 1.0001 0 1 0 29 24 L 19 24 A 1.0001 1.0001 0 0 0 18.90625 24 A 1.001098 1.001098 0 0 0 18.8125 24 A 1.0043849 1.0043849 0 0 0 18.71875 24 z M 18.71875 28 A 1.0043849 1.0043849 0 0 0 19 30 L 25 30 A 1.0001 1.0001 0 1 0 25 28 L 19 28 A 1.0001 1.0001 0 0 0 18.90625 28 A 1.001098 1.001098 0 0 0 18.8125 28 A 1.0043849 1.0043849 0 0 0 18.71875 28 z M 7 38 L 27 38 L 27 40 C 27 41.147705 27.468136 42.153583 28.125 43 L 10 43 C 8.3315161 43 7 41.668484 7 40 L 7 38 z"></path>
</symbol></svg>